<?xml version="1.0" encoding="utf-8" standalone="no"?>
<!DOCTYPE svg PUBLIC "-//W3C//DTD SVG 1.1//EN"
  "http://www.w3.org/Graphics/SVG/1.1/DTD/svg11.dtd">
<!-- Created with matplotlib (https://matplotlib.org/) -->
<svg height="345.6pt" version="1.1" viewBox="0 0 460.8 345.6" width="460.8pt" xmlns="http://www.w3.org/2000/svg" xmlns:xlink="http://www.w3.org/1999/xlink">
 <defs>
  <style type="text/css">
*{stroke-linecap:butt;stroke-linejoin:round;}
  </style>
 </defs>
 <g id="figure_1">
  <g id="patch_1">
   <path d="M 0 345.6 
L 460.8 345.6 
L 460.8 0 
L 0 0 
z
" style="fill:#ffffff;"/>
  </g>
  <g id="axes_1">
   <g id="patch_2">
    <path d="M 57.6 307.584 
L 414.72 307.584 
L 414.72 41.472 
L 57.6 41.472 
z
" style="fill:#ffffff;"/>
   </g>
   <g id="matplotlib.axis_1">
    <g id="xtick_1">
     <g id="line2d_1">
      <path clip-path="url(#p8ce50ef17c)" d="M 73.832727 307.584 
L 73.832727 41.472 
" style="fill:none;stroke:#b0b0b0;stroke-linecap:square;stroke-width:0.8;"/>
     </g>
     <g id="line2d_2">
      <defs>
       <path d="M 0 0 
L 0 3.5 
" id="mb53dde8354" style="stroke:#000000;stroke-width:0.8;"/>
      </defs>
      <g>
       <use style="stroke:#000000;stroke-width:0.8;" x="73.832727" xlink:href="#mb53dde8354" y="307.584"/>
      </g>
     </g>
     <g id="text_1">
      <!-- 0 -->
      <defs>
       <path d="M 31.78125 66.40625 
Q 24.171875 66.40625 20.328125 58.90625 
Q 16.5 51.421875 16.5 36.375 
Q 16.5 21.390625 20.328125 13.890625 
Q 24.171875 6.390625 31.78125 6.390625 
Q 39.453125 6.390625 43.28125 13.890625 
Q 47.125 21.390625 47.125 36.375 
Q 47.125 51.421875 43.28125 58.90625 
Q 39.453125 66.40625 31.78125 66.40625 
z
M 31.78125 74.21875 
Q 44.046875 74.21875 50.515625 64.515625 
Q 56.984375 54.828125 56.984375 36.375 
Q 56.984375 17.96875 50.515625 8.265625 
Q 44.046875 -1.421875 31.78125 -1.421875 
Q 19.53125 -1.421875 13.0625 8.265625 
Q 6.59375 17.96875 6.59375 36.375 
Q 6.59375 54.828125 13.0625 64.515625 
Q 19.53125 74.21875 31.78125 74.21875 
z
" id="DejaVuSans-48"/>
      </defs>
      <g transform="translate(70.651477 322.182437)scale(0.1 -0.1)">
       <use xlink:href="#DejaVuSans-48"/>
      </g>
     </g>
    </g>
    <g id="xtick_2">
     <g id="line2d_3">
      <path clip-path="url(#p8ce50ef17c)" d="M 148.55184 307.584 
L 148.55184 41.472 
" style="fill:none;stroke:#b0b0b0;stroke-linecap:square;stroke-width:0.8;"/>
     </g>
     <g id="line2d_4">
      <g>
       <use style="stroke:#000000;stroke-width:0.8;" x="148.55184" xlink:href="#mb53dde8354" y="307.584"/>
      </g>
     </g>
     <g id="text_2">
      <!-- 200 -->
      <defs>
       <path d="M 19.1875 8.296875 
L 53.609375 8.296875 
L 53.609375 0 
L 7.328125 0 
L 7.328125 8.296875 
Q 12.9375 14.109375 22.625 23.890625 
Q 32.328125 33.6875 34.8125 36.53125 
Q 39.546875 41.84375 41.421875 45.53125 
Q 43.3125 49.21875 43.3125 52.78125 
Q 43.3125 58.59375 39.234375 62.25 
Q 35.15625 65.921875 28.609375 65.921875 
Q 23.96875 65.921875 18.8125 64.3125 
Q 13.671875 62.703125 7.8125 59.421875 
L 7.8125 69.390625 
Q 13.765625 71.78125 18.9375 73 
Q 24.125 74.21875 28.421875 74.21875 
Q 39.75 74.21875 46.484375 68.546875 
Q 53.21875 62.890625 53.21875 53.421875 
Q 53.21875 48.921875 51.53125 44.890625 
Q 49.859375 40.875 45.40625 35.40625 
Q 44.1875 33.984375 37.640625 27.21875 
Q 31.109375 20.453125 19.1875 8.296875 
z
" id="DejaVuSans-50"/>
      </defs>
      <g transform="translate(139.00809 322.182437)scale(0.1 -0.1)">
       <use xlink:href="#DejaVuSans-50"/>
       <use x="63.623047" xlink:href="#DejaVuSans-48"/>
       <use x="127.246094" xlink:href="#DejaVuSans-48"/>
      </g>
     </g>
    </g>
    <g id="xtick_3">
     <g id="line2d_5">
      <path clip-path="url(#p8ce50ef17c)" d="M 223.270953 307.584 
L 223.270953 41.472 
" style="fill:none;stroke:#b0b0b0;stroke-linecap:square;stroke-width:0.8;"/>
     </g>
     <g id="line2d_6">
      <g>
       <use style="stroke:#000000;stroke-width:0.8;" x="223.270953" xlink:href="#mb53dde8354" y="307.584"/>
      </g>
     </g>
     <g id="text_3">
      <!-- 400 -->
      <defs>
       <path d="M 37.796875 64.3125 
L 12.890625 25.390625 
L 37.796875 25.390625 
z
M 35.203125 72.90625 
L 47.609375 72.90625 
L 47.609375 25.390625 
L 58.015625 25.390625 
L 58.015625 17.1875 
L 47.609375 17.1875 
L 47.609375 0 
L 37.796875 0 
L 37.796875 17.1875 
L 4.890625 17.1875 
L 4.890625 26.703125 
z
" id="DejaVuSans-52"/>
      </defs>
      <g transform="translate(213.727203 322.182437)scale(0.1 -0.1)">
       <use xlink:href="#DejaVuSans-52"/>
       <use x="63.623047" xlink:href="#DejaVuSans-48"/>
       <use x="127.246094" xlink:href="#DejaVuSans-48"/>
      </g>
     </g>
    </g>
    <g id="xtick_4">
     <g id="line2d_7">
      <path clip-path="url(#p8ce50ef17c)" d="M 297.990066 307.584 
L 297.990066 41.472 
" style="fill:none;stroke:#b0b0b0;stroke-linecap:square;stroke-width:0.8;"/>
     </g>
     <g id="line2d_8">
      <g>
       <use style="stroke:#000000;stroke-width:0.8;" x="297.990066" xlink:href="#mb53dde8354" y="307.584"/>
      </g>
     </g>
     <g id="text_4">
      <!-- 600 -->
      <defs>
       <path d="M 33.015625 40.375 
Q 26.375 40.375 22.484375 35.828125 
Q 18.609375 31.296875 18.609375 23.390625 
Q 18.609375 15.53125 22.484375 10.953125 
Q 26.375 6.390625 33.015625 6.390625 
Q 39.65625 6.390625 43.53125 10.953125 
Q 47.40625 15.53125 47.40625 23.390625 
Q 47.40625 31.296875 43.53125 35.828125 
Q 39.65625 40.375 33.015625 40.375 
z
M 52.59375 71.296875 
L 52.59375 62.3125 
Q 48.875 64.0625 45.09375 64.984375 
Q 41.3125 65.921875 37.59375 65.921875 
Q 27.828125 65.921875 22.671875 59.328125 
Q 17.53125 52.734375 16.796875 39.40625 
Q 19.671875 43.65625 24.015625 45.921875 
Q 28.375 48.1875 33.59375 48.1875 
Q 44.578125 48.1875 50.953125 41.515625 
Q 57.328125 34.859375 57.328125 23.390625 
Q 57.328125 12.15625 50.6875 5.359375 
Q 44.046875 -1.421875 33.015625 -1.421875 
Q 20.359375 -1.421875 13.671875 8.265625 
Q 6.984375 17.96875 6.984375 36.375 
Q 6.984375 53.65625 15.1875 63.9375 
Q 23.390625 74.21875 37.203125 74.21875 
Q 40.921875 74.21875 44.703125 73.484375 
Q 48.484375 72.75 52.59375 71.296875 
z
" id="DejaVuSans-54"/>
      </defs>
      <g transform="translate(288.446316 322.182437)scale(0.1 -0.1)">
       <use xlink:href="#DejaVuSans-54"/>
       <use x="63.623047" xlink:href="#DejaVuSans-48"/>
       <use x="127.246094" xlink:href="#DejaVuSans-48"/>
      </g>
     </g>
    </g>
    <g id="xtick_5">
     <g id="line2d_9">
      <path clip-path="url(#p8ce50ef17c)" d="M 372.709179 307.584 
L 372.709179 41.472 
" style="fill:none;stroke:#b0b0b0;stroke-linecap:square;stroke-width:0.8;"/>
     </g>
     <g id="line2d_10">
      <g>
       <use style="stroke:#000000;stroke-width:0.8;" x="372.709179" xlink:href="#mb53dde8354" y="307.584"/>
      </g>
     </g>
     <g id="text_5">
      <!-- 800 -->
      <defs>
       <path d="M 31.78125 34.625 
Q 24.75 34.625 20.71875 30.859375 
Q 16.703125 27.09375 16.703125 20.515625 
Q 16.703125 13.921875 20.71875 10.15625 
Q 24.75 6.390625 31.78125 6.390625 
Q 38.8125 6.390625 42.859375 10.171875 
Q 46.921875 13.96875 46.921875 20.515625 
Q 46.921875 27.09375 42.890625 30.859375 
Q 38.875 34.625 31.78125 34.625 
z
M 21.921875 38.8125 
Q 15.578125 40.375 12.03125 44.71875 
Q 8.5 49.078125 8.5 55.328125 
Q 8.5 64.0625 14.71875 69.140625 
Q 20.953125 74.21875 31.78125 74.21875 
Q 42.671875 74.21875 48.875 69.140625 
Q 55.078125 64.0625 55.078125 55.328125 
Q 55.078125 49.078125 51.53125 44.71875 
Q 48 40.375 41.703125 38.8125 
Q 48.828125 37.15625 52.796875 32.3125 
Q 56.78125 27.484375 56.78125 20.515625 
Q 56.78125 9.90625 50.3125 4.234375 
Q 43.84375 -1.421875 31.78125 -1.421875 
Q 19.734375 -1.421875 13.25 4.234375 
Q 6.78125 9.90625 6.78125 20.515625 
Q 6.78125 27.484375 10.78125 32.3125 
Q 14.796875 37.15625 21.921875 38.8125 
z
M 18.3125 54.390625 
Q 18.3125 48.734375 21.84375 45.5625 
Q 25.390625 42.390625 31.78125 42.390625 
Q 38.140625 42.390625 41.71875 45.5625 
Q 45.3125 48.734375 45.3125 54.390625 
Q 45.3125 60.0625 41.71875 63.234375 
Q 38.140625 66.40625 31.78125 66.40625 
Q 25.390625 66.40625 21.84375 63.234375 
Q 18.3125 60.0625 18.3125 54.390625 
z
" id="DejaVuSans-56"/>
      </defs>
      <g transform="translate(363.165429 322.182437)scale(0.1 -0.1)">
       <use xlink:href="#DejaVuSans-56"/>
       <use x="63.623047" xlink:href="#DejaVuSans-48"/>
       <use x="127.246094" xlink:href="#DejaVuSans-48"/>
      </g>
     </g>
    </g>
   </g>
   <g id="matplotlib.axis_2">
    <g id="ytick_1">
     <g id="line2d_11">
      <path clip-path="url(#p8ce50ef17c)" d="M 57.6 301.008942 
L 414.72 301.008942 
" style="fill:none;stroke:#b0b0b0;stroke-linecap:square;stroke-width:0.8;"/>
     </g>
     <g id="line2d_12">
      <defs>
       <path d="M 0 0 
L -3.5 0 
" id="m0943ebafae" style="stroke:#000000;stroke-width:0.8;"/>
      </defs>
      <g>
       <use style="stroke:#000000;stroke-width:0.8;" x="57.6" xlink:href="#m0943ebafae" y="301.008942"/>
      </g>
     </g>
     <g id="text_6">
      <!-- 1000 -->
      <defs>
       <path d="M 12.40625 8.296875 
L 28.515625 8.296875 
L 28.515625 63.921875 
L 10.984375 60.40625 
L 10.984375 69.390625 
L 28.421875 72.90625 
L 38.28125 72.90625 
L 38.28125 8.296875 
L 54.390625 8.296875 
L 54.390625 0 
L 12.40625 0 
z
" id="DejaVuSans-49"/>
      </defs>
      <g transform="translate(25.15 304.808161)scale(0.1 -0.1)">
       <use xlink:href="#DejaVuSans-49"/>
       <use x="63.623047" xlink:href="#DejaVuSans-48"/>
       <use x="127.246094" xlink:href="#DejaVuSans-48"/>
       <use x="190.869141" xlink:href="#DejaVuSans-48"/>
      </g>
     </g>
    </g>
    <g id="ytick_2">
     <g id="line2d_13">
      <path clip-path="url(#p8ce50ef17c)" d="M 57.6 266.554734 
L 414.72 266.554734 
" style="fill:none;stroke:#b0b0b0;stroke-linecap:square;stroke-width:0.8;"/>
     </g>
     <g id="line2d_14">
      <g>
       <use style="stroke:#000000;stroke-width:0.8;" x="57.6" xlink:href="#m0943ebafae" y="266.554734"/>
      </g>
     </g>
     <g id="text_7">
      <!-- 1100 -->
      <g transform="translate(25.15 270.353952)scale(0.1 -0.1)">
       <use xlink:href="#DejaVuSans-49"/>
       <use x="63.623047" xlink:href="#DejaVuSans-49"/>
       <use x="127.246094" xlink:href="#DejaVuSans-48"/>
       <use x="190.869141" xlink:href="#DejaVuSans-48"/>
      </g>
     </g>
    </g>
    <g id="ytick_3">
     <g id="line2d_15">
      <path clip-path="url(#p8ce50ef17c)" d="M 57.6 232.100525 
L 414.72 232.100525 
" style="fill:none;stroke:#b0b0b0;stroke-linecap:square;stroke-width:0.8;"/>
     </g>
     <g id="line2d_16">
      <g>
       <use style="stroke:#000000;stroke-width:0.8;" x="57.6" xlink:href="#m0943ebafae" y="232.100525"/>
      </g>
     </g>
     <g id="text_8">
      <!-- 1200 -->
      <g transform="translate(25.15 235.899743)scale(0.1 -0.1)">
       <use xlink:href="#DejaVuSans-49"/>
       <use x="63.623047" xlink:href="#DejaVuSans-50"/>
       <use x="127.246094" xlink:href="#DejaVuSans-48"/>
       <use x="190.869141" xlink:href="#DejaVuSans-48"/>
      </g>
     </g>
    </g>
    <g id="ytick_4">
     <g id="line2d_17">
      <path clip-path="url(#p8ce50ef17c)" d="M 57.6 197.646316 
L 414.72 197.646316 
" style="fill:none;stroke:#b0b0b0;stroke-linecap:square;stroke-width:0.8;"/>
     </g>
     <g id="line2d_18">
      <g>
       <use style="stroke:#000000;stroke-width:0.8;" x="57.6" xlink:href="#m0943ebafae" y="197.646316"/>
      </g>
     </g>
     <g id="text_9">
      <!-- 1300 -->
      <defs>
       <path d="M 40.578125 39.3125 
Q 47.65625 37.796875 51.625 33 
Q 55.609375 28.21875 55.609375 21.1875 
Q 55.609375 10.40625 48.1875 4.484375 
Q 40.765625 -1.421875 27.09375 -1.421875 
Q 22.515625 -1.421875 17.65625 -0.515625 
Q 12.796875 0.390625 7.625 2.203125 
L 7.625 11.71875 
Q 11.71875 9.328125 16.59375 8.109375 
Q 21.484375 6.890625 26.8125 6.890625 
Q 36.078125 6.890625 40.9375 10.546875 
Q 45.796875 14.203125 45.796875 21.1875 
Q 45.796875 27.640625 41.28125 31.265625 
Q 36.765625 34.90625 28.71875 34.90625 
L 20.21875 34.90625 
L 20.21875 43.015625 
L 29.109375 43.015625 
Q 36.375 43.015625 40.234375 45.921875 
Q 44.09375 48.828125 44.09375 54.296875 
Q 44.09375 59.90625 40.109375 62.90625 
Q 36.140625 65.921875 28.71875 65.921875 
Q 24.65625 65.921875 20.015625 65.03125 
Q 15.375 64.15625 9.8125 62.3125 
L 9.8125 71.09375 
Q 15.4375 72.65625 20.34375 73.4375 
Q 25.25 74.21875 29.59375 74.21875 
Q 40.828125 74.21875 47.359375 69.109375 
Q 53.90625 64.015625 53.90625 55.328125 
Q 53.90625 49.265625 50.4375 45.09375 
Q 46.96875 40.921875 40.578125 39.3125 
z
" id="DejaVuSans-51"/>
      </defs>
      <g transform="translate(25.15 201.445535)scale(0.1 -0.1)">
       <use xlink:href="#DejaVuSans-49"/>
       <use x="63.623047" xlink:href="#DejaVuSans-51"/>
       <use x="127.246094" xlink:href="#DejaVuSans-48"/>
       <use x="190.869141" xlink:href="#DejaVuSans-48"/>
      </g>
     </g>
    </g>
    <g id="ytick_5">
     <g id="line2d_19">
      <path clip-path="url(#p8ce50ef17c)" d="M 57.6 163.192107 
L 414.72 163.192107 
" style="fill:none;stroke:#b0b0b0;stroke-linecap:square;stroke-width:0.8;"/>
     </g>
     <g id="line2d_20">
      <g>
       <use style="stroke:#000000;stroke-width:0.8;" x="57.6" xlink:href="#m0943ebafae" y="163.192107"/>
      </g>
     </g>
     <g id="text_10">
      <!-- 1400 -->
      <g transform="translate(25.15 166.991326)scale(0.1 -0.1)">
       <use xlink:href="#DejaVuSans-49"/>
       <use x="63.623047" xlink:href="#DejaVuSans-52"/>
       <use x="127.246094" xlink:href="#DejaVuSans-48"/>
       <use x="190.869141" xlink:href="#DejaVuSans-48"/>
      </g>
     </g>
    </g>
    <g id="ytick_6">
     <g id="line2d_21">
      <path clip-path="url(#p8ce50ef17c)" d="M 57.6 128.737898 
L 414.72 128.737898 
" style="fill:none;stroke:#b0b0b0;stroke-linecap:square;stroke-width:0.8;"/>
     </g>
     <g id="line2d_22">
      <g>
       <use style="stroke:#000000;stroke-width:0.8;" x="57.6" xlink:href="#m0943ebafae" y="128.737898"/>
      </g>
     </g>
     <g id="text_11">
      <!-- 1500 -->
      <defs>
       <path d="M 10.796875 72.90625 
L 49.515625 72.90625 
L 49.515625 64.59375 
L 19.828125 64.59375 
L 19.828125 46.734375 
Q 21.96875 47.46875 24.109375 47.828125 
Q 26.265625 48.1875 28.421875 48.1875 
Q 40.625 48.1875 47.75 41.5 
Q 54.890625 34.8125 54.890625 23.390625 
Q 54.890625 11.625 47.5625 5.09375 
Q 40.234375 -1.421875 26.90625 -1.421875 
Q 22.3125 -1.421875 17.546875 -0.640625 
Q 12.796875 0.140625 7.71875 1.703125 
L 7.71875 11.625 
Q 12.109375 9.234375 16.796875 8.0625 
Q 21.484375 6.890625 26.703125 6.890625 
Q 35.15625 6.890625 40.078125 11.328125 
Q 45.015625 15.765625 45.015625 23.390625 
Q 45.015625 31 40.078125 35.4375 
Q 35.15625 39.890625 26.703125 39.890625 
Q 22.75 39.890625 18.8125 39.015625 
Q 14.890625 38.140625 10.796875 36.28125 
z
" id="DejaVuSans-53"/>
      </defs>
      <g transform="translate(25.15 132.537117)scale(0.1 -0.1)">
       <use xlink:href="#DejaVuSans-49"/>
       <use x="63.623047" xlink:href="#DejaVuSans-53"/>
       <use x="127.246094" xlink:href="#DejaVuSans-48"/>
       <use x="190.869141" xlink:href="#DejaVuSans-48"/>
      </g>
     </g>
    </g>
    <g id="ytick_7">
     <g id="line2d_23">
      <path clip-path="url(#p8ce50ef17c)" d="M 57.6 94.283689 
L 414.72 94.283689 
" style="fill:none;stroke:#b0b0b0;stroke-linecap:square;stroke-width:0.8;"/>
     </g>
     <g id="line2d_24">
      <g>
       <use style="stroke:#000000;stroke-width:0.8;" x="57.6" xlink:href="#m0943ebafae" y="94.283689"/>
      </g>
     </g>
     <g id="text_12">
      <!-- 1600 -->
      <g transform="translate(25.15 98.082908)scale(0.1 -0.1)">
       <use xlink:href="#DejaVuSans-49"/>
       <use x="63.623047" xlink:href="#DejaVuSans-54"/>
       <use x="127.246094" xlink:href="#DejaVuSans-48"/>
       <use x="190.869141" xlink:href="#DejaVuSans-48"/>
      </g>
     </g>
    </g>
    <g id="ytick_8">
     <g id="line2d_25">
      <path clip-path="url(#p8ce50ef17c)" d="M 57.6 59.82948 
L 414.72 59.82948 
" style="fill:none;stroke:#b0b0b0;stroke-linecap:square;stroke-width:0.8;"/>
     </g>
     <g id="line2d_26">
      <g>
       <use style="stroke:#000000;stroke-width:0.8;" x="57.6" xlink:href="#m0943ebafae" y="59.82948"/>
      </g>
     </g>
     <g id="text_13">
      <!-- 1700 -->
      <defs>
       <path d="M 8.203125 72.90625 
L 55.078125 72.90625 
L 55.078125 68.703125 
L 28.609375 0 
L 18.3125 0 
L 43.21875 64.59375 
L 8.203125 64.59375 
z
" id="DejaVuSans-55"/>
      </defs>
      <g transform="translate(25.15 63.628699)scale(0.1 -0.1)">
       <use xlink:href="#DejaVuSans-49"/>
       <use x="63.623047" xlink:href="#DejaVuSans-55"/>
       <use x="127.246094" xlink:href="#DejaVuSans-48"/>
       <use x="190.869141" xlink:href="#DejaVuSans-48"/>
      </g>
     </g>
    </g>
   </g>
   <g id="line2d_27">
    <path clip-path="url(#p8ce50ef17c)" d="M 73.832727 251.634338 
L 74.206323 277.48602 
L 74.579918 175.36788 
L 74.953514 171.911434 
L 75.32711 175.65385 
L 75.700705 174.320816 
L 76.074301 182.572255 
L 76.447896 251.275326 
L 76.821492 279.177722 
L 77.195087 167.705953 
L 77.942278 159.361144 
L 78.315874 155.151528 
L 78.68947 169.039331 
L 79.063065 244.284911 
L 79.436661 271.527165 
L 79.810256 156.967954 
L 80.183852 144.520338 
L 80.557447 152.447217 
L 80.931043 154.60853 
L 81.304639 163.850182 
L 81.678234 236.093768 
L 82.05183 263.638185 
L 82.425425 159.849015 
L 82.799021 151.41428 
L 83.172616 153.913589 
L 83.546212 154.165793 
L 83.919808 160.540856 
L 84.293403 231.493786 
L 84.666999 262.016425 
L 85.040594 150.01096 
L 85.787785 137.179179 
L 86.161381 136.278891 
L 86.534976 157.762468 
L 86.908572 234.068894 
L 87.282168 263.233692 
L 87.655763 156.14691 
L 88.029359 141.834287 
L 88.402954 140.383421 
L 88.77655 143.825396 
L 89.150145 153.569391 
L 89.523741 227.703823 
L 89.897337 259.249752 
L 90.270932 152.260131 
L 90.644528 142.595381 
L 91.018123 142.893754 
L 91.765314 166.275759 
L 92.13891 265.482174 
L 92.512505 267.723076 
L 92.886101 159.217469 
L 93.259697 138.096006 
L 93.633292 134.704334 
L 94.006888 136.771242 
L 94.380483 151.43323 
L 94.754079 226.941351 
L 95.127674 257.374754 
L 95.50127 147.616393 
L 95.874866 124.887985 
L 96.248461 114.433544 
L 96.622057 113.691056 
L 96.995652 125.762777 
L 97.369248 207.404437 
L 97.742843 239.3049 
L 98.116439 131.38157 
L 98.490035 123.235906 
L 98.86363 124.868001 
L 99.237226 123.731357 
L 99.610821 140.812376 
L 99.984417 216.456936 
L 100.358012 243.625458 
L 100.731608 142.393824 
L 101.105203 128.227287 
L 101.478799 124.038689 
L 101.852395 126.742655 
L 102.22599 134.598904 
L 102.599586 219.137473 
L 102.973181 244.646336 
L 103.346777 133.11565 
L 103.720372 120.403081 
L 104.093968 120.50162 
L 104.467564 126.961095 
L 104.841159 135.961568 
L 105.214755 208.146581 
L 105.58835 245.103199 
L 105.961946 129.795298 
L 106.335541 117.336656 
L 106.709137 121.181401 
L 107.082733 122.327693 
L 107.456328 124.564804 
L 107.829924 198.28992 
L 108.203519 230.840534 
L 108.577115 127.321141 
L 108.95071 114.16997 
L 109.324306 117.324941 
L 109.697901 111.443608 
L 110.071497 117.75114 
L 110.445093 193.216194 
L 110.818688 217.73691 
L 111.192284 106.878425 
L 111.565879 88.505718 
L 111.939475 89.664069 
L 112.31307 95.65669 
L 112.686666 103.56083 
L 113.060262 175.565992 
L 113.433857 208.994843 
L 113.807453 104.210291 
L 114.181048 98.410959 
L 114.554644 99.345702 
L 115.301835 104.510388 
L 115.67543 184.865527 
L 116.049026 221.050026 
L 116.422622 116.247903 
L 116.796217 103.675907 
L 117.543408 95.457544 
L 117.917004 101.787816 
L 118.290599 185.802337 
L 118.664195 217.594958 
L 119.037791 109.806344 
L 119.411386 105.34349 
L 119.784982 107.237094 
L 120.532173 141.677865 
L 120.905768 213.125558 
L 121.279364 244.104716 
L 121.65296 164.413853 
L 122.026555 170.41681 
L 122.400151 193.176227 
L 122.773746 258.994102 
L 123.147342 284.720026 
L 123.520937 284.006135 
L 123.894533 277.506348 
L 124.268128 225.528384 
L 124.641724 220.503238 
L 125.01532 218.710586 
L 125.762511 280.210315 
L 126.136106 234.616371 
L 126.509702 239.238748 
L 126.883297 143.796455 
L 127.256893 126.416718 
L 127.630489 144.350823 
L 128.004084 114.851474 
L 128.37768 123.280351 
L 128.751275 193.513189 
L 129.124871 225.903935 
L 129.498466 113.684165 
L 129.872062 103.2218 
L 130.245657 95.944038 
L 130.619253 96.144217 
L 130.992849 97.942726 
L 131.366444 171.284367 
L 131.74004 201.539986 
L 132.113635 83.978091 
L 132.487231 69.366405 
L 132.860826 73.044048 
L 133.608018 75.804174 
L 133.981613 163.091501 
L 134.355209 206.387693 
L 134.728804 109.162395 
L 135.1024 104.315377 
L 135.475995 103.094664 
L 136.223187 113.12394 
L 136.596782 184.099265 
L 136.970378 220.484633 
L 137.343973 117.072737 
L 137.717569 106.172803 
L 138.091164 100.127123 
L 138.46476 98.080888 
L 138.838355 113.106713 
L 139.211951 199.85552 
L 139.585547 228.787063 
L 139.959142 129.354284 
L 140.332738 111.390549 
L 140.706333 101.682386 
L 141.453524 114.28608 
L 141.82712 186.704693 
L 142.200716 222.314151 
L 142.574311 106.032919 
L 142.947907 95.572621 
L 143.321502 90.242555 
L 143.695098 99.734345 
L 144.068693 102.663297 
L 144.442289 174.584736 
L 144.815885 221.829381 
L 145.18948 116.803649 
L 145.563076 102.622297 
L 146.310267 100.75419 
L 146.683862 113.732057 
L 147.057458 192.639775 
L 147.431053 224.559532 
L 147.804649 113.540147 
L 148.178245 100.546775 
L 148.925436 107.247774 
L 149.299031 111.901504 
L 149.672627 191.559635 
L 150.046222 224.052022 
L 150.419818 117.909629 
L 150.793414 102.953402 
L 151.167009 106.741642 
L 151.9142 117.843477 
L 152.287796 190.445731 
L 152.661391 226.180258 
L 153.034987 124.736731 
L 153.408582 105.290431 
L 153.782178 107.84969 
L 154.155774 118.238667 
L 154.529369 122.37076 
L 154.902965 192.942972 
L 155.27656 228.499371 
L 155.650156 122.286692 
L 156.023751 116.762649 
L 156.397347 119.263335 
L 156.770943 131.729902 
L 157.144538 231.856589 
L 157.518134 240.442233 
L 157.891729 274.105029 
L 158.265325 261.525797 
L 158.63892 148.598682 
L 159.012516 131.667195 
L 159.386112 134.869025 
L 159.759707 145.324843 
L 160.133303 225.745101 
L 160.506898 263.931735 
L 160.880494 156.905248 
L 161.254089 144.63128 
L 161.627685 140.201503 
L 162.00128 138.113233 
L 162.374876 149.395608 
L 162.748472 229.814143 
L 163.122067 264.330025 
L 163.495663 159.006265 
L 163.869258 147.02447 
L 164.242854 142.970587 
L 164.616449 146.877006 
L 164.990045 153.089099 
L 165.363641 232.057457 
L 165.737236 261.89618 
L 166.110832 153.275497 
L 166.484427 144.939645 
L 166.858023 150.078491 
L 167.231618 151.773293 
L 167.605214 159.718089 
L 167.978809 229.280792 
L 168.352405 257.588715 
L 168.726001 143.746152 
L 169.099596 130.948136 
L 169.473192 126.269599 
L 169.846787 134.534819 
L 170.220383 145.600822 
L 170.593978 230.078407 
L 170.967574 273.927245 
L 171.34117 161.405656 
L 171.714765 141.508351 
L 172.088361 152.808987 
L 172.461956 262.634189 
L 172.835552 213.47768 
L 173.582743 275.976926 
L 173.956339 161.867343 
L 174.329934 152.23119 
L 174.70353 148.818845 
L 175.077125 147.920623 
L 175.450721 161.355009 
L 175.824316 242.912945 
L 176.197912 284.396846 
L 176.571507 273.33291 
L 176.945103 160.932255 
L 177.318699 151.900774 
L 177.692294 150.475403 
L 178.06589 157.810704 
L 178.439485 240.518722 
L 178.813081 266.846905 
L 179.186676 152.63706 
L 179.560272 144.584422 
L 179.933868 154.001102 
L 180.307463 224.832065 
L 180.681059 192.922644 
L 181.054654 242.598378 
L 181.42825 267.621091 
L 181.801845 155.069872 
L 182.175441 151.103848 
L 182.549037 152.359359 
L 182.922632 155.667652 
L 183.296228 165.1653 
L 183.669823 242.419216 
L 184.043419 274.672145 
L 184.417014 165.351352 
L 184.79061 156.565874 
L 185.164205 156.233046 
L 185.537801 161.133813 
L 185.911397 173.019826 
L 186.284992 247.104988 
L 186.658588 273.168219 
L 187.032183 166.315037 
L 187.405779 158.645185 
L 187.779374 160.328273 
L 188.15297 161.156552 
L 188.526566 169.195064 
L 188.900161 245.152813 
L 189.273757 277.928068 
L 189.647352 170.842664 
L 190.020948 160.126027 
L 190.768139 147.203287 
L 191.141734 153.583173 
L 191.51533 233.633737 
L 191.888926 276.534395 
L 192.262521 166.894901 
L 192.636117 157.995723 
L 193.009712 155.440944 
L 193.383308 156.13623 
L 193.756903 164.028311 
L 194.130499 241.164049 
L 194.504095 278.917593 
L 194.87769 171.594799 
L 195.251286 157.389674 
L 195.624881 158.507368 
L 195.998477 163.136291 
L 196.372072 165.419572 
L 196.745668 243.397715 
L 197.119264 270.525237 
L 197.492859 160.390635 
L 197.866455 156.761918 
L 198.24005 165.643869 
L 198.613646 164.620234 
L 198.987241 175.948778 
L 199.360837 251.998519 
L 199.734432 278.471755 
L 200.108028 172.998119 
L 200.855219 156.568974 
L 201.228815 156.535898 
L 201.60241 167.707676 
L 201.976006 243.419421 
L 202.349601 274.735196 
L 202.723197 169.35183 
L 203.096793 162.601562 
L 203.470388 164.358382 
L 203.843984 168.973179 
L 204.217579 179.846927 
L 204.591175 251.829005 
L 204.96477 282.22313 
L 205.338366 190.087062 
L 206.085557 169.23951 
L 206.459153 171.200988 
L 206.832748 185.9846 
L 207.206344 257.514638 
L 207.579939 287.855015 
L 207.953535 183.88117 
L 208.32713 180.969445 
L 209.447917 186.518295 
L 209.821513 254.603947 
L 210.195108 288.271566 
L 210.568704 202.324164 
L 210.942299 181.472477 
L 211.315895 183.100438 
L 211.689491 178.698224 
L 212.063086 183.515956 
L 212.436682 251.555438 
L 212.810277 286.321458 
L 213.183873 177.828944 
L 213.557468 166.856312 
L 213.931064 161.271629 
L 214.304659 158.132851 
L 214.678255 163.433631 
L 215.051851 237.785125 
L 215.425446 268.0845 
L 215.799042 162.735933 
L 216.172637 167.363134 
L 216.546233 162.70079 
L 216.919828 160.601151 
L 217.293424 169.264661 
L 217.66702 247.018508 
L 218.040615 269.395828 
L 218.414211 168.602451 
L 218.787806 163.621406 
L 219.161402 161.42943 
L 219.534997 155.970849 
L 219.908593 165.614238 
L 220.282189 241.299454 
L 220.655784 270.564514 
L 221.02938 159.751165 
L 221.402975 147.059268 
L 221.776571 148.606951 
L 222.150166 150.64354 
L 222.523762 164.171296 
L 222.897357 239.143654 
L 223.270953 270.842215 
L 223.644549 166.80153 
L 224.018144 159.592676 
L 224.39174 160.710715 
L 224.765335 162.664613 
L 225.138931 168.761285 
L 225.512526 245.581423 
L 225.886122 275.350893 
L 226.259718 165.158409 
L 226.633313 155.273496 
L 227.006909 150.963619 
L 227.380504 150.513992 
L 227.7541 161.942797 
L 228.127695 240.374014 
L 228.501291 272.865711 
L 228.874886 264.764837 
L 229.248482 155.589441 
L 229.995673 132.249471 
L 230.369269 145.107093 
L 230.742864 220.677576 
L 231.11646 251.688087 
L 231.490055 143.884313 
L 231.863651 130.727973 
L 232.237247 130.131226 
L 232.610842 127.507538 
L 232.984438 136.334018 
L 233.358033 217.074011 
L 233.731629 254.059226 
L 234.105224 142.032399 
L 234.47882 132.313556 
L 234.852416 127.509606 
L 235.226011 126.600359 
L 235.599607 135.853381 
L 235.973202 215.876038 
L 236.346798 247.605608 
L 236.720393 134.625778 
L 237.093989 129.017666 
L 237.467584 130.308666 
L 237.84118 130.17774 
L 238.214776 135.519865 
L 238.588371 217.095717 
L 238.961967 252.213514 
L 239.335562 186.780837 
L 239.709158 197.000989 
L 240.082753 122.057916 
L 240.456349 117.695324 
L 240.829945 125.452 
L 241.20354 197.850285 
L 241.577136 230.398831 
L 241.950731 118.690017 
L 242.324327 104.058693 
L 242.697922 102.197477 
L 243.071518 101.981793 
L 243.445114 105.294221 
L 243.818709 182.815846 
L 244.192305 213.849441 
L 244.5659 106.656196 
L 244.939496 92.870722 
L 245.313091 103.228346 
L 245.686687 106.581086 
L 246.060282 113.391649 
L 246.433878 185.814396 
L 246.807474 220.395396 
L 247.181069 117.349749 
L 247.554665 110.477512 
L 247.92826 112.835903 
L 248.301856 106.140416 
L 248.675451 113.503281 
L 249.049047 184.989218 
L 249.422643 219.368661 
L 249.796238 103.337911 
L 250.169834 84.423928 
L 250.543429 81.07429 
L 250.917025 83.506757 
L 251.29062 99.296777 
L 251.664216 173.135247 
L 252.037811 197.677325 
L 252.411407 89.32814 
L 252.785003 77.043492 
L 253.158598 69.776755 
L 253.905789 97.23986 
L 254.279385 182.035803 
L 254.65298 208.672696 
L 255.026576 104.665087 
L 255.400172 93.492276 
L 255.773767 95.905449 
L 256.147363 93.802364 
L 256.520958 105.485442 
L 256.894554 175.05159 
L 257.268149 209.190199 
L 257.641745 114.260929 
L 258.015341 103.783748 
L 258.388936 105.516106 
L 258.762532 124.375651 
L 259.136127 157.744552 
L 259.509723 233.701267 
L 259.883318 260.465641 
L 260.256914 259.245962 
L 260.630509 201.324647 
L 261.004105 199.410027 
L 261.377701 199.059972 
L 261.751296 200.732035 
L 262.498487 256.076175 
L 262.872083 149.047965 
L 263.245678 118.405081 
L 263.619274 110.44857 
L 263.99287 112.462419 
L 264.366465 128.119445 
L 265.113656 197.297984 
L 265.487252 92.78562 
L 265.860847 80.830699 
L 266.234443 75.399682 
L 266.608038 87.187156 
L 266.981634 91.218987 
L 267.35523 165.694861 
L 267.728825 201.124813 
L 268.102421 92.400767 
L 268.476016 77.365295 
L 268.849612 70.374191 
L 269.223207 71.035023 
L 269.596803 79.903536 
L 269.970399 155.260748 
L 270.343994 183.747143 
L 270.71759 72.408023 
L 271.091185 66.030549 
L 271.464781 68.728658 
L 271.838376 73.774132 
L 272.211972 84.235464 
L 272.585568 165.24799 
L 272.959163 198.965912 
L 273.332759 92.438322 
L 273.706354 87.096541 
L 274.07995 84.64857 
L 274.827141 103.043327 
L 275.200736 182.351748 
L 275.574332 218.705073 
L 275.947928 103.068823 
L 276.321523 86.850538 
L 276.695119 85.527152 
L 277.068714 81.280671 
L 277.44231 86.433298 
L 277.815905 167.771416 
L 278.189501 199.985068 
L 278.563097 95.222567 
L 278.936692 96.50254 
L 279.310288 101.361617 
L 279.683883 102.53754 
L 280.057479 109.40702 
L 280.431074 188.249964 
L 280.80467 216.258824 
L 281.178266 106.983855 
L 281.551861 105.687343 
L 281.925457 99.678185 
L 282.672648 115.092998 
L 283.046243 191.074176 
L 283.419839 229.094395 
L 283.793434 139.86833 
L 284.16703 117.527877 
L 284.540626 111.024989 
L 284.914221 114.359123 
L 285.287817 123.875031 
L 285.661412 209.502354 
L 286.035008 237.082259 
L 286.408603 121.898738 
L 286.782199 109.836319 
L 287.155795 106.25825 
L 287.52939 113.210764 
L 287.902986 129.837332 
L 288.276581 209.561959 
L 288.650177 242.195608 
L 289.023772 136.029442 
L 289.397368 125.855459 
L 290.518155 136.490095 
L 290.89175 199.557491 
L 291.265346 238.787053 
L 291.638941 136.978656 
L 292.012537 125.25251 
L 292.386132 124.657831 
L 292.759728 129.315006 
L 293.133324 139.925869 
L 293.506919 220.355429 
L 293.880515 257.297232 
L 294.25411 152.981258 
L 294.627706 147.556098 
L 295.001301 144.098274 
L 295.374897 149.696049 
L 295.748493 162.301466 
L 296.122088 236.90482 
L 296.495684 267.615579 
L 296.869279 160.46988 
L 297.242875 154.054506 
L 297.61647 143.650369 
L 297.990066 141.1738 
L 298.363661 145.85406 
L 298.737257 231.152 
L 299.110853 264.448203 
L 299.484448 152.540588 
L 299.858044 145.5643 
L 300.231639 144.148232 
L 300.605235 156.267156 
L 300.97883 256.123377 
L 301.352426 247.748593 
L 301.726022 284.227331 
L 302.099617 271.221212 
L 302.473213 152.04307 
L 302.846808 136.879428 
L 303.220404 138.178696 
L 303.593999 142.954394 
L 303.967595 213.445982 
L 304.341191 246.93444 
L 304.714786 146.435992 
L 305.088382 134.717771 
L 305.461977 132.668779 
L 305.835573 133.603522 
L 306.209168 145.092277 
L 306.582764 228.817039 
L 306.956359 269.633906 
L 307.329955 265.443585 
L 307.703551 145.04542 
L 308.450742 133.156306 
L 308.824337 147.30286 
L 309.197933 232.312763 
L 309.571528 262.03124 
L 309.945124 148.644506 
L 311.065911 156.531764 
L 311.439506 160.964298 
L 311.813102 241.809721 
L 312.186697 276.522681 
L 312.560293 167.575371 
L 312.933888 155.727947 
L 313.307484 153.933572 
L 313.68108 152.859634 
L 314.054675 157.650837 
L 314.428271 242.038497 
L 314.801866 276.646027 
L 315.175462 168.969733 
L 315.549057 156.391535 
L 315.922653 163.91978 
L 316.296249 268.553078 
L 316.669844 221.866247 
L 317.04344 252.578039 
L 317.417035 273.655746 
L 317.790631 158.361971 
L 318.164226 145.823396 
L 318.537822 150.118802 
L 318.911418 160.621478 
L 319.285013 165.824064 
L 319.658609 244.891305 
L 320.032204 295.488 
L 320.4058 291.306982 
L 320.779395 174.353548 
L 321.152991 162.767287 
L 321.526586 167.200854 
L 321.900182 169.777684 
L 322.273778 249.454076 
L 322.647373 277.766478 
L 323.020969 165.384084 
L 323.394564 163.11872 
L 323.76816 173.542151 
L 324.141755 230.516665 
L 324.515351 196.675741 
L 324.888947 252.990801 
L 325.262542 278.587866 
L 325.636138 165.237653 
L 326.009733 149.221959 
L 326.383329 151.3657 
L 326.756924 142.764551 
L 327.13052 154.447629 
L 327.504115 237.519483 
L 327.877711 271.15885 
L 328.251307 163.433286 
L 328.998498 152.339031 
L 329.372093 159.381472 
L 329.745689 168.712016 
L 330.119284 245.619667 
L 330.49288 275.26648 
L 330.866476 174.032435 
L 331.240071 165.446446 
L 331.613667 164.231246 
L 331.987262 160.201826 
L 332.360858 164.825926 
L 332.734453 241.177486 
L 333.108049 278.193365 
L 333.481645 167.33936 
L 333.85524 165.133946 
L 334.228836 158.962508 
L 334.976027 182.635306 
L 335.349622 258.215781 
L 335.723218 285.115905 
L 336.096813 180.162528 
L 336.844005 159.244344 
L 337.2176 162.830338 
L 337.591196 178.594172 
L 337.964791 248.9097 
L 338.338387 284.38961 
L 338.711982 184.908939 
L 339.085578 172.406541 
L 339.832769 178.016375 
L 340.206365 187.957792 
L 340.57996 255.340922 
L 340.953556 279.84889 
L 341.327151 186.231636 
L 341.700747 175.313442 
L 342.074343 174.997842 
L 342.447938 166.828749 
L 342.821534 180.618012 
L 343.195129 256.172302 
L 343.568725 292.628301 
L 343.94232 196.93587 
L 344.315916 182.521263 
L 344.689511 183.026706 
L 345.063107 179.905499 
L 345.436703 187.641158 
L 345.810298 259.161549 
L 346.183894 292.371272 
L 346.557489 195.806117 
L 347.30468 175.58563 
L 347.678276 170.859891 
L 348.051872 176.119326 
L 348.425467 255.880131 
L 348.799063 286.25944 
L 349.172658 181.379795 
L 349.546254 175.889861 
L 349.919849 175.10844 
L 350.293445 169.433487 
L 350.66704 175.652472 
L 351.040636 247.599061 
L 351.414232 278.042111 
L 351.787827 173.839147 
L 352.161423 159.964781 
L 352.535018 151.45976 
L 352.908614 156.999418 
L 353.282209 176.357973 
L 353.655805 254.2443 
L 354.029401 281.194561 
L 354.402996 177.192106 
L 355.150187 155.693965 
L 355.523783 160.861263 
L 355.897378 160.545407 
L 356.270974 236.263196 
L 356.64457 269.275031 
L 357.018165 159.323389 
L 357.391761 153.370456 
L 357.765356 142.307271 
L 358.138952 143.734137 
L 358.512547 159.820866 
L 358.886143 238.473013 
L 359.259738 268.167118 
L 359.633334 161.940682 
L 360.00693 152.92149 
L 360.380525 148.418876 
L 361.127716 162.707567 
L 361.501312 235.165761 
L 361.874907 261.361492 
L 362.248503 156.441938 
L 362.622099 147.547808 
L 362.995694 145.617732 
L 363.36929 147.18872 
L 363.742885 153.572037 
L 364.116481 226.29108 
L 364.490076 264.25117 
L 364.863672 188.111207 
L 365.237267 240.104341 
L 365.610863 142.86912 
L 365.984459 135.444145 
L 366.358054 141.244049 
L 366.73165 215.466239 
L 367.105245 249.21996 
L 367.478841 143.047 
L 367.852436 132.339524 
L 368.226032 132.173817 
L 368.599628 131.171702 
L 368.973223 141.444938 
L 369.346819 220.065225 
L 369.720414 259.978042 
L 370.09401 150.091349 
L 370.467605 141.029096 
L 370.841201 142.273761 
L 371.214797 140.127743 
L 371.588392 139.18736 
L 371.961988 216.051802 
L 372.335583 244.366364 
L 372.709179 134.418749 
L 373.082774 125.804177 
L 373.45637 126.619416 
L 374.203561 135.455356 
L 374.577157 203.068864 
L 374.950752 240.053166 
L 375.324348 181.84083 
L 375.697943 230.692805 
L 376.071539 194.481773 
L 376.445134 137.628862 
L 376.81873 138.666771 
L 377.192326 202.892021 
L 377.565921 234.217753 
L 377.939517 126.783748 
L 378.313112 113.013187 
L 378.686708 112.378451 
L 379.060303 108.881624 
L 379.433899 107.921589 
L 379.807495 181.646071 
L 380.18109 217.796877 
L 380.554686 115.357396 
L 380.928281 102.051914 
L 381.301877 107.364688 
L 381.675472 102.988618 
L 382.049068 110.746668 
L 382.422663 173.556319 
L 382.796259 208.670071 
L 383.169855 106.146945 
L 383.54345 102.381834 
L 383.917046 108.502948 
L 384.290641 100.558593 
L 384.664237 119.046984 
L 385.037832 186.22273 
L 385.411428 205.881499 
L 385.785024 93.533287 
L 386.158619 88.984422 
L 386.532215 92.910913 
L 386.90581 88.415073 
L 387.279406 96.708621 
L 387.653001 165.99873 
L 388.026597 187.219694 
L 388.400192 87.05603 
L 388.773788 79.219251 
L 389.147384 80.818071 
L 389.894575 88.062438 
L 390.26817 157.905002 
L 390.641766 191.406783 
L 391.015361 89.405449 
L 391.388957 77.964984 
L 391.762553 76.400515 
L 392.136148 81.692829 
L 392.509744 102.231597 
L 392.883339 169.091674 
L 393.256935 198.604432 
L 393.63053 101.625609 
L 394.004126 98.941106 
L 394.377722 108.173666 
L 394.751317 121.718866 
L 395.124913 155.1857 
L 395.872104 252.167586 
L 396.245699 262.667134 
L 396.619295 256.178218 
L 396.99289 210.07019 
L 397.366486 197.69318 
L 397.740082 199.338869 
L 398.113677 226.777704 
L 398.487273 264.103358 
L 398.487273 264.103358 
" style="fill:none;stroke:#1f77b4;stroke-linecap:square;stroke-width:1.5;"/>
   </g>
   <g id="line2d_28">
    <path clip-path="url(#p8ce50ef17c)" d="M 73.832727 227.534291 
L 74.206323 260.607387 
L 74.579918 190.563183 
L 74.953514 170.32285 
L 75.32711 175.074603 
L 75.700705 177.874218 
L 76.074301 182.866966 
L 76.447896 231.8491 
L 76.821492 259.594327 
L 77.195087 195.288188 
L 77.568683 168.851312 
L 77.942278 167.272651 
L 78.315874 163.385575 
L 78.68947 174.097461 
L 79.063065 225.402184 
L 79.436661 260.19593 
L 79.810256 183.639872 
L 80.183852 157.46502 
L 80.557447 150.784007 
L 80.931043 158.693923 
L 81.304639 175.784128 
L 81.678234 227.183019 
L 82.05183 253.718396 
L 82.425425 175.681884 
L 82.799021 155.614747 
L 83.172616 157.464095 
L 83.546212 160.328269 
L 83.919808 169.005498 
L 84.293403 222.831829 
L 84.666999 251.205156 
L 85.040594 175.824966 
L 85.41419 150.117509 
L 85.787785 150.713223 
L 86.161381 145.48865 
L 86.534976 156.7515 
L 86.908572 225.673923 
L 87.282168 250.220486 
L 87.655763 168.624113 
L 88.029359 149.884884 
L 88.402954 147.789284 
L 88.77655 147.574113 
L 89.150145 161.039981 
L 89.523741 221.415136 
L 89.897337 251.024432 
L 90.270932 168.5225 
L 90.644528 147.559351 
L 91.018123 149.447561 
L 91.391719 150.665781 
L 91.765314 169.478234 
L 92.13891 230.025239 
L 92.512505 251.251883 
L 92.886101 176.268892 
L 93.633292 142.9376 
L 94.006888 141.563553 
L 94.380483 163.416657 
L 94.754079 219.865411 
L 95.127674 254.005823 
L 95.50127 165.686126 
L 95.874866 143.468418 
L 96.248461 132.330229 
L 96.622057 124.509477 
L 96.995652 138.815838 
L 97.369248 207.420469 
L 97.742843 249.278547 
L 98.116439 157.711692 
L 98.490035 125.535112 
L 98.86363 131.193728 
L 99.237226 133.259887 
L 99.610821 139.091783 
L 99.984417 215.14987 
L 100.358012 235.456025 
L 100.731608 151.91033 
L 101.105203 136.101644 
L 101.478799 135.519683 
L 101.852395 132.954417 
L 102.22599 143.245299 
L 102.599586 210.88204 
L 102.973181 241.435714 
L 103.346777 152.546673 
L 103.720372 130.989955 
L 104.093968 128.979187 
L 104.467564 130.362907 
L 104.841159 145.196512 
L 105.214755 214.770377 
L 105.58835 237.686422 
L 105.961946 150.732949 
L 106.335541 127.398424 
L 106.709137 126.408959 
L 107.082733 131.423703 
L 107.456328 140.542502 
L 107.829924 204.184162 
L 108.203519 237.517768 
L 108.577115 142.778829 
L 108.95071 123.251091 
L 109.324306 123.15995 
L 109.697901 127.372389 
L 110.071497 127.266276 
L 110.445093 196.880728 
L 110.818688 231.327156 
L 111.192284 136.159601 
L 111.565879 99.715989 
L 111.939475 99.007516 
L 112.31307 101.477057 
L 112.686666 123.00303 
L 113.060262 193.587053 
L 113.433857 220.868671 
L 113.807453 120.923287 
L 114.181048 95.103743 
L 114.554644 107.322622 
L 114.928239 107.297219 
L 115.301835 116.038923 
L 115.67543 179.626369 
L 116.049026 216.589822 
L 116.422622 125.229516 
L 116.796217 108.682453 
L 117.169813 111.835526 
L 117.543408 107.440049 
L 117.917004 110.514726 
L 118.290599 184.208165 
L 118.664195 226.908841 
L 119.037791 131.971597 
L 119.411386 100.533562 
L 119.784982 114.164718 
L 120.158577 114.923031 
L 120.532173 137.345478 
L 120.905768 212.809953 
L 121.279364 218.758814 
L 121.65296 147.313183 
L 122.026555 144.161835 
L 122.400151 163.480543 
L 122.773746 172.839916 
L 123.147342 197.715334 
L 123.520937 236.650945 
L 123.894533 218.057406 
L 124.268128 219.54909 
L 124.641724 214.68176 
L 125.01532 215.553756 
L 125.388915 228.953634 
L 125.762511 266.841908 
L 126.136106 289.348136 
L 126.883297 225.758755 
L 127.256893 158.937652 
L 127.630489 134.02863 
L 128.004084 181.931504 
L 128.37768 180.361339 
L 128.751275 202.209185 
L 129.124871 237.570551 
L 129.498466 155.475786 
L 129.872062 109.412039 
L 130.245657 114.973122 
L 130.619253 106.354691 
L 130.992849 118.35697 
L 131.366444 185.976214 
L 131.74004 227.106305 
L 132.113635 130.031992 
L 132.487231 71.723248 
L 132.860826 80.022625 
L 133.234422 83.124555 
L 133.608018 98.254924 
L 133.981613 166.829062 
L 134.355209 211.953897 
L 134.728804 110.262207 
L 135.1024 94.213284 
L 135.475995 111.027375 
L 135.849591 106.737548 
L 136.223187 118.133766 
L 136.596782 176.525196 
L 136.970378 213.764762 
L 137.343973 129.375966 
L 137.717569 109.895416 
L 138.091164 114.781925 
L 138.46476 109.062114 
L 138.838355 113.895839 
L 139.211951 193.018803 
L 139.585547 227.020758 
L 139.959142 132.400004 
L 140.332738 119.68206 
L 140.706333 119.837508 
L 141.079929 110.019951 
L 141.453524 123.889032 
L 141.82712 197.698931 
L 142.200716 231.177428 
L 142.574311 142.329141 
L 142.947907 97.265879 
L 143.321502 105.781099 
L 143.695098 100.259762 
L 144.068693 121.196077 
L 144.442289 189.045381 
L 144.815885 222.910857 
L 145.18948 127.357585 
L 145.563076 107.20141 
L 145.936671 110.374671 
L 146.310267 109.848059 
L 146.683862 114.704453 
L 147.057458 188.378672 
L 147.431053 225.969762 
L 147.804649 130.992479 
L 148.178245 106.810478 
L 148.55184 109.512727 
L 148.925436 113.109768 
L 149.299031 123.472191 
L 149.672627 195.112047 
L 150.046222 225.91559 
L 150.419818 129.871455 
L 150.793414 112.034925 
L 151.167009 111.469366 
L 151.540605 116.44445 
L 151.9142 128.187186 
L 152.287796 197.724629 
L 152.661391 225.159802 
L 153.034987 133.606364 
L 153.408582 118.380606 
L 153.782178 113.277539 
L 154.155774 117.951863 
L 154.529369 134.074473 
L 154.902965 199.474593 
L 155.27656 227.061681 
L 155.650156 136.881112 
L 156.023751 117.689377 
L 156.397347 125.712051 
L 156.770943 128.477851 
L 157.144538 145.991415 
L 157.518134 238.936018 
L 157.891729 214.406867 
L 158.265325 177.639869 
L 158.63892 192.387044 
L 159.386112 133.553244 
L 159.759707 159.657354 
L 160.133303 197.237214 
L 160.506898 275.090688 
L 160.880494 244.328909 
L 161.254089 147.578277 
L 161.627685 151.766196 
L 162.00128 147.046113 
L 162.374876 151.420519 
L 162.748472 217.087961 
L 163.122067 252.746049 
L 163.495663 168.888071 
L 163.869258 150.531363 
L 164.242854 152.893066 
L 164.616449 149.567385 
L 164.990045 159.479447 
L 165.363641 218.92751 
L 165.737236 252.725146 
L 166.110832 171.171125 
L 166.484427 149.346621 
L 166.858023 151.62896 
L 167.605214 164.434259 
L 167.978809 224.627721 
L 168.352405 248.665042 
L 168.726001 172.02247 
L 169.099596 145.448232 
L 169.473192 139.527802 
L 169.846787 136.336414 
L 170.220383 162.876333 
L 170.593978 220.128024 
L 170.967574 247.669394 
L 171.34117 165.69521 
L 171.714765 149.253924 
L 172.088361 149.769139 
L 172.461956 158.89799 
L 173.209147 249.205534 
L 173.582743 241.959046 
L 174.329934 168.312586 
L 174.70353 154.944126 
L 175.077125 178.553166 
L 175.450721 188.026728 
L 176.197912 258.601077 
L 176.571507 181.445225 
L 176.945103 192.753961 
L 177.318699 167.169061 
L 177.692294 152.077218 
L 178.06589 152.337181 
L 178.439485 200.881151 
L 178.813081 281.86221 
L 179.186676 252.029921 
L 179.560272 152.526822 
L 179.933868 151.323532 
L 180.307463 160.698088 
L 180.681059 214.457758 
L 181.054654 247.260839 
L 181.42825 242.113274 
L 181.801845 191.553195 
L 182.175441 160.74389 
L 182.549037 155.881943 
L 182.922632 167.966278 
L 183.296228 188.773053 
L 183.669823 227.578031 
L 184.043419 252.711308 
L 184.417014 180.170604 
L 184.79061 159.878034 
L 185.164205 161.376027 
L 185.537801 161.197615 
L 185.911397 172.875498 
L 186.284992 230.488722 
L 186.658588 257.386053 
L 187.032183 184.115006 
L 187.405779 162.713903 
L 187.779374 163.114005 
L 188.15297 164.902452 
L 188.526566 176.766106 
L 188.900161 226.738925 
L 189.273757 257.061867 
L 189.647352 185.839861 
L 190.020948 165.189921 
L 190.394543 164.524852 
L 190.768139 158.738884 
L 191.141734 158.856353 
L 191.888926 260.873154 
L 192.262521 185.948834 
L 192.636117 158.693755 
L 193.009712 163.224534 
L 193.383308 160.15583 
L 193.756903 166.088498 
L 194.130499 222.442243 
L 194.504095 258.863731 
L 194.87769 183.7144 
L 195.251286 163.787443 
L 195.624881 161.877699 
L 195.998477 162.873305 
L 196.372072 172.038957 
L 197.119264 260.263392 
L 197.492859 183.491448 
L 197.866455 159.004861 
L 198.24005 162.321078 
L 198.987241 176.706005 
L 199.360837 232.510762 
L 199.734432 254.543286 
L 200.108028 187.704266 
L 200.481624 168.08463 
L 200.855219 167.271095 
L 201.228815 160.474128 
L 201.60241 170.962095 
L 202.349601 260.993146 
L 202.723197 184.862299 
L 203.096793 163.764816 
L 203.470388 166.919151 
L 203.843984 168.330797 
L 204.217579 178.153149 
L 204.591175 233.255952 
L 204.96477 257.798057 
L 205.338366 191.474756 
L 205.711962 177.750482 
L 206.085557 178.716521 
L 206.459153 170.948047 
L 206.832748 177.7578 
L 207.206344 231.723976 
L 207.579939 265.525145 
L 207.953535 200.188239 
L 208.32713 178.142508 
L 208.700726 182.032696 
L 209.074322 183.261053 
L 209.447917 194.022988 
L 210.195108 264.93086 
L 210.568704 203.368061 
L 210.942299 189.479255 
L 211.315895 183.856305 
L 211.689491 183.420033 
L 212.063086 183.377008 
L 212.810277 268.798421 
L 213.183873 212.06531 
L 213.557468 176.724553 
L 214.304659 164.206092 
L 214.678255 172.861618 
L 215.425446 264.37977 
L 215.799042 187.592643 
L 216.172637 160.186448 
L 216.546233 172.715171 
L 216.919828 167.432978 
L 217.293424 170.492387 
L 217.66702 225.425947 
L 218.040615 255.041257 
L 218.414211 184.537945 
L 218.787806 165.05626 
L 219.161402 168.204707 
L 219.534997 165.876776 
L 219.908593 167.533329 
L 220.282189 222.865392 
L 220.655784 256.443273 
L 221.02938 183.387102 
L 221.402975 158.671885 
L 221.776571 153.372153 
L 222.150166 155.035224 
L 222.523762 168.653764 
L 222.897357 227.159887 
L 223.270953 254.802114 
L 223.644549 177.302729 
L 224.018144 159.17995 
L 224.39174 164.141701 
L 224.765335 165.336495 
L 225.138931 172.357507 
L 225.512526 225.915422 
L 225.886122 256.295606 
L 226.259718 185.502974 
L 226.633313 162.402672 
L 227.006909 160.386394 
L 227.380504 156.358381 
L 227.7541 165.939569 
L 228.127695 222.716505 
L 228.501291 258.54821 
L 228.874886 179.532537 
L 229.248482 190.347971 
L 229.622078 162.814044 
L 229.995673 146.135339 
L 230.369269 137.168833 
L 230.742864 194.165103 
L 231.11646 269.5066 
L 231.490055 247.559496 
L 231.863651 141.531799 
L 232.237247 139.07088 
L 232.610842 139.119878 
L 232.984438 144.014252 
L 233.358033 211.831465 
L 233.731629 244.897916 
L 234.105224 157.129731 
L 234.47882 136.089279 
L 234.852416 140.064846 
L 235.226011 135.76892 
L 235.599607 142.182652 
L 235.973202 211.169803 
L 236.346798 245.664724 
L 236.720393 154.597018 
L 237.093989 131.74894 
L 237.467584 137.586346 
L 237.84118 139.03185 
L 238.214776 145.844842 
L 238.588371 210.996439 
L 238.961967 240.543152 
L 239.335562 156.315145 
L 239.709158 153.258679 
L 240.082753 173.119857 
L 240.456349 124.095791 
L 240.829945 129.187965 
L 241.20354 182.84232 
L 241.577136 256.774861 
L 241.950731 215.077025 
L 242.324327 124.245687 
L 242.697922 114.07341 
L 243.071518 113.049962 
L 243.445114 123.033649 
L 243.818709 192.051713 
L 244.192305 230.255971 
L 244.5659 132.140672 
L 244.939496 97.444501 
L 245.313091 102.059229 
L 245.686687 113.12798 
L 246.060282 120.621728 
L 246.433878 192.069293 
L 246.807474 217.39974 
L 247.181069 127.931724 
L 247.554665 111.732567 
L 247.92826 119.095556 
L 248.301856 121.398672 
L 248.675451 120.571889 
L 249.049047 188.942801 
L 249.422643 223.703699 
L 249.796238 131.85947 
L 250.169834 94.28718 
L 250.543429 94.918392 
L 250.917025 92.286043 
L 251.29062 109.302393 
L 251.664216 191.219294 
L 252.037811 222.49469 
L 252.411407 116.514098 
L 252.785003 77.637621 
L 253.158598 86.223499 
L 253.532194 77.919538 
L 253.905789 107.921197 
L 254.279385 184.92833 
L 254.65298 210.420281 
L 255.026576 108.860654 
L 255.400172 96.457097 
L 255.773767 103.987142 
L 256.147363 103.817142 
L 256.520958 107.696773 
L 256.894554 187.911614 
L 257.268149 215.211612 
L 257.641745 120.903141 
L 258.015341 105.638227 
L 258.388936 111.2171 
L 258.762532 113.229719 
L 259.136127 136.299655 
L 259.509723 213.50421 
L 259.883318 216.042222 
L 260.256914 155.438732 
L 260.630509 178.152981 
L 261.004105 179.686765 
L 261.751296 198.160353 
L 262.498487 256.426996 
L 262.872083 252.807874 
L 263.245678 161.275129 
L 263.619274 128.641206 
L 263.99287 125.181948 
L 265.113656 241.423938 
L 265.860847 85.762918 
L 266.234443 92.328775 
L 266.608038 87.152526 
L 267.728825 208.274548 
L 268.102421 111.99539 
L 268.476016 79.354864 
L 268.849612 85.684563 
L 269.223207 78.085837 
L 269.596803 84.95565 
L 269.970399 167.160776 
L 270.343994 212.218024 
L 270.71759 112.97413 
L 271.091185 53.568 
L 271.464781 73.130984 
L 271.838376 73.662307 
L 272.211972 87.628164 
L 272.585568 164.503024 
L 272.959163 197.954435 
L 273.332759 99.342469 
L 273.706354 79.380646 
L 274.07995 93.800943 
L 274.453545 90.328816 
L 274.827141 104.908304 
L 275.200736 178.575289 
L 275.574332 209.17283 
L 275.947928 118.47999 
L 276.321523 94.439431 
L 276.695119 96.074618 
L 277.068714 95.019122 
L 277.44231 97.163888 
L 277.815905 177.720579 
L 278.189501 223.462452 
L 278.563097 122.019874 
L 278.936692 81.436921 
L 279.310288 104.249754 
L 279.683883 106.739862 
L 280.057479 112.930305 
L 280.431074 178.544712 
L 280.80467 208.101099 
L 281.178266 125.476398 
L 281.551861 99.78282 
L 281.925457 115.453092 
L 282.299052 107.886835 
L 282.672648 123.568884 
L 283.046243 195.161045 
L 283.419839 220.129412 
L 283.793434 132.154551 
L 284.16703 124.372871 
L 284.540626 125.400904 
L 284.914221 119.284146 
L 285.287817 129.357292 
L 285.661412 198.153876 
L 286.035008 235.115731 
L 286.408603 147.747772 
L 286.782199 117.918343 
L 287.155795 118.924842 
L 287.52939 116.276595 
L 287.902986 131.872045 
L 288.276581 212.956064 
L 288.650177 233.662404 
L 289.023772 142.404762 
L 289.397368 128.289009 
L 289.770963 135.499747 
L 290.144559 137.647667 
L 290.518155 148.865431 
L 290.89175 210.01753 
L 291.265346 235.231728 
L 291.638941 152.093284 
L 292.012537 131.877933 
L 292.386132 134.079688 
L 292.759728 134.504099 
L 293.133324 145.090946 
L 293.506919 210.74228 
L 293.880515 236.87356 
L 294.25411 157.297754 
L 294.627706 142.438619 
L 295.001301 155.685026 
L 295.374897 150.425712 
L 295.748493 162.330289 
L 296.122088 225.596578 
L 296.495684 247.700559 
L 296.869279 174.69448 
L 297.242875 154.963515 
L 297.61647 159.355501 
L 297.990066 149.945995 
L 298.363661 155.397389 
L 299.110853 255.663805 
L 299.484448 173.59642 
L 299.858044 148.131008 
L 300.231639 152.341639 
L 300.605235 151.088216 
L 300.97883 168.688252 
L 301.352426 263.074825 
L 301.726022 240.416093 
L 302.099617 194.898559 
L 302.473213 205.092707 
L 302.846808 161.7633 
L 303.220404 138.542459 
L 303.967595 191.676426 
L 304.341191 266.805864 
L 304.714786 249.460534 
L 305.088382 141.458828 
L 305.461977 142.647944 
L 305.835573 141.663484 
L 306.209168 148.841416 
L 306.582764 215.600988 
L 306.956359 243.318415 
L 307.329955 165.767719 
L 307.703551 181.005211 
L 308.077146 152.806426 
L 308.450742 141.90738 
L 308.824337 139.153441 
L 309.571528 274.811168 
L 309.945124 244.695868 
L 310.31872 144.543682 
L 310.692315 157.951551 
L 311.065911 160.230778 
L 311.439506 168.486792 
L 311.813102 224.396022 
L 312.186697 249.007523 
L 312.560293 180.001109 
L 312.933888 160.914521 
L 313.307484 160.629491 
L 313.68108 158.961162 
L 314.054675 163.09899 
L 314.801866 259.858832 
L 315.175462 181.194641 
L 315.549057 161.313234 
L 315.922653 161.147524 
L 316.296249 168.15655 
L 316.669844 221.471872 
L 317.04344 255.41196 
L 317.417035 244.751595 
L 318.164226 164.957044 
L 318.537822 149.486633 
L 319.285013 205.360072 
L 320.032204 255.625742 
L 320.4058 186.420182 
L 320.779395 200.561381 
L 321.152991 176.590302 
L 321.526586 160.937611 
L 321.900182 165.970608 
L 322.273778 204.438026 
L 322.647373 289.248542 
L 323.020969 263.133622 
L 323.394564 165.008145 
L 323.76816 167.544306 
L 324.141755 176.874995 
L 324.515351 220.587427 
L 324.888947 245.966283 
L 325.262542 251.755406 
L 325.636138 201.910865 
L 326.009733 171.817267 
L 326.383329 153.752024 
L 327.13052 174.472706 
L 327.877711 260.306291 
L 328.251307 176.045731 
L 328.624902 155.964083 
L 328.998498 162.339836 
L 329.372093 157.341873 
L 329.745689 169.747449 
L 330.119284 227.783402 
L 330.49288 256.109876 
L 330.866476 183.075197 
L 331.240071 165.868743 
L 331.613667 169.022784 
L 331.987262 167.863571 
L 332.360858 168.797393 
L 333.108049 259.55004 
L 333.481645 187.486025 
L 333.85524 163.515998 
L 334.228836 169.959003 
L 334.602431 163.271808 
L 334.976027 180.14865 
L 335.349622 235.627286 
L 335.723218 259.438669 
L 336.096813 192.738778 
L 336.470409 173.760237 
L 336.844005 171.793168 
L 337.2176 161.864955 
L 337.591196 177.011307 
L 337.964791 228.842221 
L 338.338387 264.51095 
L 338.711982 192.566381 
L 339.085578 174.629878 
L 339.459174 175.174029 
L 339.832769 176.55981 
L 340.206365 185.051687 
L 340.57996 234.118569 
L 340.953556 264.002043 
L 341.327151 198.102775 
L 341.700747 179.604962 
L 342.074343 177.598862 
L 342.447938 176.698182 
L 342.821534 179.631837 
L 343.568725 264.092805 
L 343.94232 200.006042 
L 344.315916 183.501206 
L 344.689511 182.248708 
L 345.063107 182.472921 
L 345.436703 183.728531 
L 346.183894 270.003309 
L 346.557489 207.454494 
L 346.931085 187.122431 
L 347.30468 187.589195 
L 347.678276 176.326933 
L 348.051872 177.629985 
L 348.799063 271.009429 
L 349.172658 208.919471 
L 349.546254 177.434035 
L 349.919849 178.4709 
L 350.293445 176.357173 
L 350.66704 175.866562 
L 351.414232 264.652518 
L 351.787827 194.583626 
L 352.161423 171.2409 
L 352.535018 164.735901 
L 352.908614 156.16609 
L 353.282209 172.489907 
L 353.655805 231.849815 
L 354.029401 261.627386 
L 354.402996 187.279351 
L 354.776592 169.013236 
L 355.150187 169.704003 
L 355.523783 158.914477 
L 355.897378 173.867865 
L 356.64457 262.368328 
L 357.018165 187.408932 
L 357.391761 157.633632 
L 357.765356 159.541946 
L 358.138952 149.176495 
L 358.512547 157.448449 
L 358.886143 223.513049 
L 359.259738 255.51412 
L 359.633334 174.570029 
L 360.00693 155.388473 
L 360.380525 158.353671 
L 360.754121 154.162934 
L 361.127716 168.01679 
L 361.501312 224.630623 
L 361.874907 253.910603 
L 362.248503 175.88961 
L 362.622099 153.933043 
L 362.995694 153.965596 
L 363.36929 153.011881 
L 363.742885 165.143194 
L 364.116481 219.703991 
L 364.490076 250.049855 
L 364.863672 172.068272 
L 365.237267 163.003223 
L 365.610863 191.942025 
L 365.984459 144.658249 
L 366.358054 142.784928 
L 366.73165 183.347735 
L 367.105245 262.022903 
L 367.478841 226.476565 
L 367.852436 169.92258 
L 368.226032 140.933813 
L 368.599628 141.152138 
L 368.973223 146.609799 
L 369.346819 214.154138 
L 369.720414 242.947418 
L 370.09401 161.018026 
L 370.467605 141.8845 
L 370.841201 147.997136 
L 371.214797 149.454206 
L 371.588392 153.6788 
L 372.335583 248.587318 
L 372.709179 160.523041 
L 373.082774 133.366042 
L 373.45637 135.608258 
L 373.829965 136.823408 
L 374.203561 148.549405 
L 374.577157 211.78436 
L 374.950752 236.897323 
L 375.324348 151.352973 
L 375.697943 148.717596 
L 376.071539 179.031958 
L 376.445134 174.694522 
L 376.81873 143.810857 
L 377.192326 158.181905 
L 377.565921 245.36325 
L 377.939517 222.322461 
L 378.313112 165.916816 
L 378.686708 127.960155 
L 379.060303 124.322065 
L 379.433899 132.894147 
L 379.807495 191.953843 
L 380.18109 232.931556 
L 380.554686 141.629122 
L 380.928281 106.679844 
L 381.301877 110.965717 
L 381.675472 116.785164 
L 382.049068 117.092695 
L 382.422663 187.352953 
L 382.796259 220.333226 
L 383.169855 129.147084 
L 383.54345 96.478967 
L 383.917046 112.00397 
L 384.290641 117.031248 
L 384.664237 113.910265 
L 385.037832 189.984797 
L 385.411428 213.944856 
L 385.785024 125.597148 
L 386.158619 84.929573 
L 386.532215 100.363099 
L 386.90581 103.337971 
L 387.279406 118.018442 
L 387.653001 184.746512 
L 388.026597 211.206057 
L 388.400192 108.459796 
L 388.773788 74.679993 
L 389.147384 88.269933 
L 389.520979 88.501506 
L 389.894575 102.638583 
L 390.26817 167.004403 
L 390.641766 199.098759 
L 391.015361 107.194134 
L 391.388957 74.779461 
L 391.762553 85.658739 
L 392.136148 83.101423 
L 392.509744 93.658744 
L 392.883339 178.753238 
L 393.256935 202.399836 
L 393.63053 107.507805 
L 394.004126 91.557803 
L 394.377722 106.250218 
L 394.751317 114.426868 
L 395.124913 131.134215 
L 395.498508 205.550428 
L 395.872104 199.795666 
L 396.245699 151.498747 
L 396.99289 192.088009 
L 397.366486 191.306397 
L 397.740082 192.89166 
L 398.113677 198.618915 
L 398.487273 246.724805 
L 398.487273 246.724805 
" style="fill:none;stroke:#ff7f0e;stroke-linecap:square;stroke-width:1.5;"/>
   </g>
   <g id="patch_3">
    <path d="M 57.6 307.584 
L 57.6 41.472 
" style="fill:none;stroke:#000000;stroke-linecap:square;stroke-linejoin:miter;stroke-width:0.8;"/>
   </g>
   <g id="patch_4">
    <path d="M 414.72 307.584 
L 414.72 41.472 
" style="fill:none;stroke:#000000;stroke-linecap:square;stroke-linejoin:miter;stroke-width:0.8;"/>
   </g>
   <g id="patch_5">
    <path d="M 57.6 307.584 
L 414.72 307.584 
" style="fill:none;stroke:#000000;stroke-linecap:square;stroke-linejoin:miter;stroke-width:0.8;"/>
   </g>
   <g id="patch_6">
    <path d="M 57.6 41.472 
L 414.72 41.472 
" style="fill:none;stroke:#000000;stroke-linecap:square;stroke-linejoin:miter;stroke-width:0.8;"/>
   </g>
   <g id="text_14">
    <!-- Forecasting result for opsd Germany daily energy consumption data -->
    <defs>
     <path d="M 9.8125 72.90625 
L 51.703125 72.90625 
L 51.703125 64.59375 
L 19.671875 64.59375 
L 19.671875 43.109375 
L 48.578125 43.109375 
L 48.578125 34.8125 
L 19.671875 34.8125 
L 19.671875 0 
L 9.8125 0 
z
" id="DejaVuSans-70"/>
     <path d="M 30.609375 48.390625 
Q 23.390625 48.390625 19.1875 42.75 
Q 14.984375 37.109375 14.984375 27.296875 
Q 14.984375 17.484375 19.15625 11.84375 
Q 23.34375 6.203125 30.609375 6.203125 
Q 37.796875 6.203125 41.984375 11.859375 
Q 46.1875 17.53125 46.1875 27.296875 
Q 46.1875 37.015625 41.984375 42.703125 
Q 37.796875 48.390625 30.609375 48.390625 
z
M 30.609375 56 
Q 42.328125 56 49.015625 48.375 
Q 55.71875 40.765625 55.71875 27.296875 
Q 55.71875 13.875 49.015625 6.21875 
Q 42.328125 -1.421875 30.609375 -1.421875 
Q 18.84375 -1.421875 12.171875 6.21875 
Q 5.515625 13.875 5.515625 27.296875 
Q 5.515625 40.765625 12.171875 48.375 
Q 18.84375 56 30.609375 56 
z
" id="DejaVuSans-111"/>
     <path d="M 41.109375 46.296875 
Q 39.59375 47.171875 37.8125 47.578125 
Q 36.03125 48 33.890625 48 
Q 26.265625 48 22.1875 43.046875 
Q 18.109375 38.09375 18.109375 28.8125 
L 18.109375 0 
L 9.078125 0 
L 9.078125 54.6875 
L 18.109375 54.6875 
L 18.109375 46.1875 
Q 20.953125 51.171875 25.484375 53.578125 
Q 30.03125 56 36.53125 56 
Q 37.453125 56 38.578125 55.875 
Q 39.703125 55.765625 41.0625 55.515625 
z
" id="DejaVuSans-114"/>
     <path d="M 56.203125 29.59375 
L 56.203125 25.203125 
L 14.890625 25.203125 
Q 15.484375 15.921875 20.484375 11.0625 
Q 25.484375 6.203125 34.421875 6.203125 
Q 39.59375 6.203125 44.453125 7.46875 
Q 49.3125 8.734375 54.109375 11.28125 
L 54.109375 2.78125 
Q 49.265625 0.734375 44.1875 -0.34375 
Q 39.109375 -1.421875 33.890625 -1.421875 
Q 20.796875 -1.421875 13.15625 6.1875 
Q 5.515625 13.8125 5.515625 26.8125 
Q 5.515625 40.234375 12.765625 48.109375 
Q 20.015625 56 32.328125 56 
Q 43.359375 56 49.78125 48.890625 
Q 56.203125 41.796875 56.203125 29.59375 
z
M 47.21875 32.234375 
Q 47.125 39.59375 43.09375 43.984375 
Q 39.0625 48.390625 32.421875 48.390625 
Q 24.90625 48.390625 20.390625 44.140625 
Q 15.875 39.890625 15.1875 32.171875 
z
" id="DejaVuSans-101"/>
     <path d="M 48.78125 52.59375 
L 48.78125 44.1875 
Q 44.96875 46.296875 41.140625 47.34375 
Q 37.3125 48.390625 33.40625 48.390625 
Q 24.65625 48.390625 19.8125 42.84375 
Q 14.984375 37.3125 14.984375 27.296875 
Q 14.984375 17.28125 19.8125 11.734375 
Q 24.65625 6.203125 33.40625 6.203125 
Q 37.3125 6.203125 41.140625 7.25 
Q 44.96875 8.296875 48.78125 10.40625 
L 48.78125 2.09375 
Q 45.015625 0.34375 40.984375 -0.53125 
Q 36.96875 -1.421875 32.421875 -1.421875 
Q 20.0625 -1.421875 12.78125 6.34375 
Q 5.515625 14.109375 5.515625 27.296875 
Q 5.515625 40.671875 12.859375 48.328125 
Q 20.21875 56 33.015625 56 
Q 37.15625 56 41.109375 55.140625 
Q 45.0625 54.296875 48.78125 52.59375 
z
" id="DejaVuSans-99"/>
     <path d="M 34.28125 27.484375 
Q 23.390625 27.484375 19.1875 25 
Q 14.984375 22.515625 14.984375 16.5 
Q 14.984375 11.71875 18.140625 8.90625 
Q 21.296875 6.109375 26.703125 6.109375 
Q 34.1875 6.109375 38.703125 11.40625 
Q 43.21875 16.703125 43.21875 25.484375 
L 43.21875 27.484375 
z
M 52.203125 31.203125 
L 52.203125 0 
L 43.21875 0 
L 43.21875 8.296875 
Q 40.140625 3.328125 35.546875 0.953125 
Q 30.953125 -1.421875 24.3125 -1.421875 
Q 15.921875 -1.421875 10.953125 3.296875 
Q 6 8.015625 6 15.921875 
Q 6 25.140625 12.171875 29.828125 
Q 18.359375 34.515625 30.609375 34.515625 
L 43.21875 34.515625 
L 43.21875 35.40625 
Q 43.21875 41.609375 39.140625 45 
Q 35.0625 48.390625 27.6875 48.390625 
Q 23 48.390625 18.546875 47.265625 
Q 14.109375 46.140625 10.015625 43.890625 
L 10.015625 52.203125 
Q 14.9375 54.109375 19.578125 55.046875 
Q 24.21875 56 28.609375 56 
Q 40.484375 56 46.34375 49.84375 
Q 52.203125 43.703125 52.203125 31.203125 
z
" id="DejaVuSans-97"/>
     <path d="M 44.28125 53.078125 
L 44.28125 44.578125 
Q 40.484375 46.53125 36.375 47.5 
Q 32.28125 48.484375 27.875 48.484375 
Q 21.1875 48.484375 17.84375 46.4375 
Q 14.5 44.390625 14.5 40.28125 
Q 14.5 37.15625 16.890625 35.375 
Q 19.28125 33.59375 26.515625 31.984375 
L 29.59375 31.296875 
Q 39.15625 29.25 43.1875 25.515625 
Q 47.21875 21.78125 47.21875 15.09375 
Q 47.21875 7.46875 41.1875 3.015625 
Q 35.15625 -1.421875 24.609375 -1.421875 
Q 20.21875 -1.421875 15.453125 -0.5625 
Q 10.6875 0.296875 5.421875 2 
L 5.421875 11.28125 
Q 10.40625 8.6875 15.234375 7.390625 
Q 20.0625 6.109375 24.8125 6.109375 
Q 31.15625 6.109375 34.5625 8.28125 
Q 37.984375 10.453125 37.984375 14.40625 
Q 37.984375 18.0625 35.515625 20.015625 
Q 33.0625 21.96875 24.703125 23.78125 
L 21.578125 24.515625 
Q 13.234375 26.265625 9.515625 29.90625 
Q 5.8125 33.546875 5.8125 39.890625 
Q 5.8125 47.609375 11.28125 51.796875 
Q 16.75 56 26.8125 56 
Q 31.78125 56 36.171875 55.265625 
Q 40.578125 54.546875 44.28125 53.078125 
z
" id="DejaVuSans-115"/>
     <path d="M 18.3125 70.21875 
L 18.3125 54.6875 
L 36.8125 54.6875 
L 36.8125 47.703125 
L 18.3125 47.703125 
L 18.3125 18.015625 
Q 18.3125 11.328125 20.140625 9.421875 
Q 21.96875 7.515625 27.59375 7.515625 
L 36.8125 7.515625 
L 36.8125 0 
L 27.59375 0 
Q 17.1875 0 13.234375 3.875 
Q 9.28125 7.765625 9.28125 18.015625 
L 9.28125 47.703125 
L 2.6875 47.703125 
L 2.6875 54.6875 
L 9.28125 54.6875 
L 9.28125 70.21875 
z
" id="DejaVuSans-116"/>
     <path d="M 9.421875 54.6875 
L 18.40625 54.6875 
L 18.40625 0 
L 9.421875 0 
z
M 9.421875 75.984375 
L 18.40625 75.984375 
L 18.40625 64.59375 
L 9.421875 64.59375 
z
" id="DejaVuSans-105"/>
     <path d="M 54.890625 33.015625 
L 54.890625 0 
L 45.90625 0 
L 45.90625 32.71875 
Q 45.90625 40.484375 42.875 44.328125 
Q 39.84375 48.1875 33.796875 48.1875 
Q 26.515625 48.1875 22.3125 43.546875 
Q 18.109375 38.921875 18.109375 30.90625 
L 18.109375 0 
L 9.078125 0 
L 9.078125 54.6875 
L 18.109375 54.6875 
L 18.109375 46.1875 
Q 21.34375 51.125 25.703125 53.5625 
Q 30.078125 56 35.796875 56 
Q 45.21875 56 50.046875 50.171875 
Q 54.890625 44.34375 54.890625 33.015625 
z
" id="DejaVuSans-110"/>
     <path d="M 45.40625 27.984375 
Q 45.40625 37.75 41.375 43.109375 
Q 37.359375 48.484375 30.078125 48.484375 
Q 22.859375 48.484375 18.828125 43.109375 
Q 14.796875 37.75 14.796875 27.984375 
Q 14.796875 18.265625 18.828125 12.890625 
Q 22.859375 7.515625 30.078125 7.515625 
Q 37.359375 7.515625 41.375 12.890625 
Q 45.40625 18.265625 45.40625 27.984375 
z
M 54.390625 6.78125 
Q 54.390625 -7.171875 48.1875 -13.984375 
Q 42 -20.796875 29.203125 -20.796875 
Q 24.46875 -20.796875 20.265625 -20.09375 
Q 16.0625 -19.390625 12.109375 -17.921875 
L 12.109375 -9.1875 
Q 16.0625 -11.328125 19.921875 -12.34375 
Q 23.78125 -13.375 27.78125 -13.375 
Q 36.625 -13.375 41.015625 -8.765625 
Q 45.40625 -4.15625 45.40625 5.171875 
L 45.40625 9.625 
Q 42.625 4.78125 38.28125 2.390625 
Q 33.9375 0 27.875 0 
Q 17.828125 0 11.671875 7.65625 
Q 5.515625 15.328125 5.515625 27.984375 
Q 5.515625 40.671875 11.671875 48.328125 
Q 17.828125 56 27.875 56 
Q 33.9375 56 38.28125 53.609375 
Q 42.625 51.21875 45.40625 46.390625 
L 45.40625 54.6875 
L 54.390625 54.6875 
z
" id="DejaVuSans-103"/>
     <path id="DejaVuSans-32"/>
     <path d="M 8.5 21.578125 
L 8.5 54.6875 
L 17.484375 54.6875 
L 17.484375 21.921875 
Q 17.484375 14.15625 20.5 10.265625 
Q 23.53125 6.390625 29.59375 6.390625 
Q 36.859375 6.390625 41.078125 11.03125 
Q 45.3125 15.671875 45.3125 23.6875 
L 45.3125 54.6875 
L 54.296875 54.6875 
L 54.296875 0 
L 45.3125 0 
L 45.3125 8.40625 
Q 42.046875 3.421875 37.71875 1 
Q 33.40625 -1.421875 27.6875 -1.421875 
Q 18.265625 -1.421875 13.375 4.4375 
Q 8.5 10.296875 8.5 21.578125 
z
M 31.109375 56 
z
" id="DejaVuSans-117"/>
     <path d="M 9.421875 75.984375 
L 18.40625 75.984375 
L 18.40625 0 
L 9.421875 0 
z
" id="DejaVuSans-108"/>
     <path d="M 37.109375 75.984375 
L 37.109375 68.5 
L 28.515625 68.5 
Q 23.6875 68.5 21.796875 66.546875 
Q 19.921875 64.59375 19.921875 59.515625 
L 19.921875 54.6875 
L 34.71875 54.6875 
L 34.71875 47.703125 
L 19.921875 47.703125 
L 19.921875 0 
L 10.890625 0 
L 10.890625 47.703125 
L 2.296875 47.703125 
L 2.296875 54.6875 
L 10.890625 54.6875 
L 10.890625 58.5 
Q 10.890625 67.625 15.140625 71.796875 
Q 19.390625 75.984375 28.609375 75.984375 
z
" id="DejaVuSans-102"/>
     <path d="M 18.109375 8.203125 
L 18.109375 -20.796875 
L 9.078125 -20.796875 
L 9.078125 54.6875 
L 18.109375 54.6875 
L 18.109375 46.390625 
Q 20.953125 51.265625 25.265625 53.625 
Q 29.59375 56 35.59375 56 
Q 45.5625 56 51.78125 48.09375 
Q 58.015625 40.1875 58.015625 27.296875 
Q 58.015625 14.40625 51.78125 6.484375 
Q 45.5625 -1.421875 35.59375 -1.421875 
Q 29.59375 -1.421875 25.265625 0.953125 
Q 20.953125 3.328125 18.109375 8.203125 
z
M 48.6875 27.296875 
Q 48.6875 37.203125 44.609375 42.84375 
Q 40.53125 48.484375 33.40625 48.484375 
Q 26.265625 48.484375 22.1875 42.84375 
Q 18.109375 37.203125 18.109375 27.296875 
Q 18.109375 17.390625 22.1875 11.75 
Q 26.265625 6.109375 33.40625 6.109375 
Q 40.53125 6.109375 44.609375 11.75 
Q 48.6875 17.390625 48.6875 27.296875 
z
" id="DejaVuSans-112"/>
     <path d="M 45.40625 46.390625 
L 45.40625 75.984375 
L 54.390625 75.984375 
L 54.390625 0 
L 45.40625 0 
L 45.40625 8.203125 
Q 42.578125 3.328125 38.25 0.953125 
Q 33.9375 -1.421875 27.875 -1.421875 
Q 17.96875 -1.421875 11.734375 6.484375 
Q 5.515625 14.40625 5.515625 27.296875 
Q 5.515625 40.1875 11.734375 48.09375 
Q 17.96875 56 27.875 56 
Q 33.9375 56 38.25 53.625 
Q 42.578125 51.265625 45.40625 46.390625 
z
M 14.796875 27.296875 
Q 14.796875 17.390625 18.875 11.75 
Q 22.953125 6.109375 30.078125 6.109375 
Q 37.203125 6.109375 41.296875 11.75 
Q 45.40625 17.390625 45.40625 27.296875 
Q 45.40625 37.203125 41.296875 42.84375 
Q 37.203125 48.484375 30.078125 48.484375 
Q 22.953125 48.484375 18.875 42.84375 
Q 14.796875 37.203125 14.796875 27.296875 
z
" id="DejaVuSans-100"/>
     <path d="M 59.515625 10.40625 
L 59.515625 29.984375 
L 43.40625 29.984375 
L 43.40625 38.09375 
L 69.28125 38.09375 
L 69.28125 6.78125 
Q 63.578125 2.734375 56.6875 0.65625 
Q 49.8125 -1.421875 42 -1.421875 
Q 24.90625 -1.421875 15.25 8.5625 
Q 5.609375 18.5625 5.609375 36.375 
Q 5.609375 54.25 15.25 64.234375 
Q 24.90625 74.21875 42 74.21875 
Q 49.125 74.21875 55.546875 72.453125 
Q 61.96875 70.703125 67.390625 67.28125 
L 67.390625 56.78125 
Q 61.921875 61.421875 55.765625 63.765625 
Q 49.609375 66.109375 42.828125 66.109375 
Q 29.4375 66.109375 22.71875 58.640625 
Q 16.015625 51.171875 16.015625 36.375 
Q 16.015625 21.625 22.71875 14.15625 
Q 29.4375 6.6875 42.828125 6.6875 
Q 48.046875 6.6875 52.140625 7.59375 
Q 56.25 8.5 59.515625 10.40625 
z
" id="DejaVuSans-71"/>
     <path d="M 52 44.1875 
Q 55.375 50.25 60.0625 53.125 
Q 64.75 56 71.09375 56 
Q 79.640625 56 84.28125 50.015625 
Q 88.921875 44.046875 88.921875 33.015625 
L 88.921875 0 
L 79.890625 0 
L 79.890625 32.71875 
Q 79.890625 40.578125 77.09375 44.375 
Q 74.3125 48.1875 68.609375 48.1875 
Q 61.625 48.1875 57.5625 43.546875 
Q 53.515625 38.921875 53.515625 30.90625 
L 53.515625 0 
L 44.484375 0 
L 44.484375 32.71875 
Q 44.484375 40.625 41.703125 44.40625 
Q 38.921875 48.1875 33.109375 48.1875 
Q 26.21875 48.1875 22.15625 43.53125 
Q 18.109375 38.875 18.109375 30.90625 
L 18.109375 0 
L 9.078125 0 
L 9.078125 54.6875 
L 18.109375 54.6875 
L 18.109375 46.1875 
Q 21.1875 51.21875 25.484375 53.609375 
Q 29.78125 56 35.6875 56 
Q 41.65625 56 45.828125 52.96875 
Q 50 49.953125 52 44.1875 
z
" id="DejaVuSans-109"/>
     <path d="M 32.171875 -5.078125 
Q 28.375 -14.84375 24.75 -17.8125 
Q 21.140625 -20.796875 15.09375 -20.796875 
L 7.90625 -20.796875 
L 7.90625 -13.28125 
L 13.1875 -13.28125 
Q 16.890625 -13.28125 18.9375 -11.515625 
Q 21 -9.765625 23.484375 -3.21875 
L 25.09375 0.875 
L 2.984375 54.6875 
L 12.5 54.6875 
L 29.59375 11.921875 
L 46.6875 54.6875 
L 56.203125 54.6875 
z
" id="DejaVuSans-121"/>
    </defs>
    <g transform="translate(30.70125 35.472)scale(0.12 -0.12)">
     <use xlink:href="#DejaVuSans-70"/>
     <use x="57.472656" xlink:href="#DejaVuSans-111"/>
     <use x="118.654297" xlink:href="#DejaVuSans-114"/>
     <use x="159.736328" xlink:href="#DejaVuSans-101"/>
     <use x="221.259766" xlink:href="#DejaVuSans-99"/>
     <use x="276.240234" xlink:href="#DejaVuSans-97"/>
     <use x="337.519531" xlink:href="#DejaVuSans-115"/>
     <use x="389.619141" xlink:href="#DejaVuSans-116"/>
     <use x="428.828125" xlink:href="#DejaVuSans-105"/>
     <use x="456.611328" xlink:href="#DejaVuSans-110"/>
     <use x="519.990234" xlink:href="#DejaVuSans-103"/>
     <use x="583.466797" xlink:href="#DejaVuSans-32"/>
     <use x="615.253906" xlink:href="#DejaVuSans-114"/>
     <use x="656.335938" xlink:href="#DejaVuSans-101"/>
     <use x="717.859375" xlink:href="#DejaVuSans-115"/>
     <use x="769.958984" xlink:href="#DejaVuSans-117"/>
     <use x="833.337891" xlink:href="#DejaVuSans-108"/>
     <use x="861.121094" xlink:href="#DejaVuSans-116"/>
     <use x="900.330078" xlink:href="#DejaVuSans-32"/>
     <use x="932.117188" xlink:href="#DejaVuSans-102"/>
     <use x="967.322266" xlink:href="#DejaVuSans-111"/>
     <use x="1028.503906" xlink:href="#DejaVuSans-114"/>
     <use x="1069.617188" xlink:href="#DejaVuSans-32"/>
     <use x="1101.404297" xlink:href="#DejaVuSans-111"/>
     <use x="1162.585938" xlink:href="#DejaVuSans-112"/>
     <use x="1226.0625" xlink:href="#DejaVuSans-115"/>
     <use x="1278.162109" xlink:href="#DejaVuSans-100"/>
     <use x="1341.638672" xlink:href="#DejaVuSans-32"/>
     <use x="1373.425781" xlink:href="#DejaVuSans-71"/>
     <use x="1450.916016" xlink:href="#DejaVuSans-101"/>
     <use x="1512.439453" xlink:href="#DejaVuSans-114"/>
     <use x="1553.537109" xlink:href="#DejaVuSans-109"/>
     <use x="1650.949219" xlink:href="#DejaVuSans-97"/>
     <use x="1712.228516" xlink:href="#DejaVuSans-110"/>
     <use x="1775.607422" xlink:href="#DejaVuSans-121"/>
     <use x="1834.787109" xlink:href="#DejaVuSans-32"/>
     <use x="1866.574219" xlink:href="#DejaVuSans-100"/>
     <use x="1930.050781" xlink:href="#DejaVuSans-97"/>
     <use x="1991.330078" xlink:href="#DejaVuSans-105"/>
     <use x="2019.113281" xlink:href="#DejaVuSans-108"/>
     <use x="2046.896484" xlink:href="#DejaVuSans-121"/>
     <use x="2106.076172" xlink:href="#DejaVuSans-32"/>
     <use x="2137.863281" xlink:href="#DejaVuSans-101"/>
     <use x="2199.386719" xlink:href="#DejaVuSans-110"/>
     <use x="2262.765625" xlink:href="#DejaVuSans-101"/>
     <use x="2324.289062" xlink:href="#DejaVuSans-114"/>
     <use x="2365.386719" xlink:href="#DejaVuSans-103"/>
     <use x="2428.863281" xlink:href="#DejaVuSans-121"/>
     <use x="2488.042969" xlink:href="#DejaVuSans-32"/>
     <use x="2519.830078" xlink:href="#DejaVuSans-99"/>
     <use x="2574.810547" xlink:href="#DejaVuSans-111"/>
     <use x="2635.992188" xlink:href="#DejaVuSans-110"/>
     <use x="2699.371094" xlink:href="#DejaVuSans-115"/>
     <use x="2751.470703" xlink:href="#DejaVuSans-117"/>
     <use x="2814.849609" xlink:href="#DejaVuSans-109"/>
     <use x="2912.261719" xlink:href="#DejaVuSans-112"/>
     <use x="2975.738281" xlink:href="#DejaVuSans-116"/>
     <use x="3014.947266" xlink:href="#DejaVuSans-105"/>
     <use x="3042.730469" xlink:href="#DejaVuSans-111"/>
     <use x="3103.912109" xlink:href="#DejaVuSans-110"/>
     <use x="3167.291016" xlink:href="#DejaVuSans-32"/>
     <use x="3199.078125" xlink:href="#DejaVuSans-100"/>
     <use x="3262.554688" xlink:href="#DejaVuSans-97"/>
     <use x="3323.833984" xlink:href="#DejaVuSans-116"/>
     <use x="3363.042969" xlink:href="#DejaVuSans-97"/>
    </g>
   </g>
   <g id="legend_1">
    <g id="patch_7">
     <path d="M 325.65125 78.82825 
L 407.72 78.82825 
Q 409.72 78.82825 409.72 76.82825 
L 409.72 48.472 
Q 409.72 46.472 407.72 46.472 
L 325.65125 46.472 
Q 323.65125 46.472 323.65125 48.472 
L 323.65125 76.82825 
Q 323.65125 78.82825 325.65125 78.82825 
z
" style="fill:#ffffff;opacity:0.8;stroke:#cccccc;stroke-linejoin:miter;"/>
    </g>
    <g id="line2d_29">
     <path d="M 327.65125 54.570437 
L 347.65125 54.570437 
" style="fill:none;stroke:#1f77b4;stroke-linecap:square;stroke-width:1.5;"/>
    </g>
    <g id="line2d_30"/>
    <g id="text_15">
     <!-- Real data -->
     <defs>
      <path d="M 44.390625 34.1875 
Q 47.5625 33.109375 50.5625 29.59375 
Q 53.5625 26.078125 56.59375 19.921875 
L 66.609375 0 
L 56 0 
L 46.6875 18.703125 
Q 43.0625 26.03125 39.671875 28.421875 
Q 36.28125 30.8125 30.421875 30.8125 
L 19.671875 30.8125 
L 19.671875 0 
L 9.8125 0 
L 9.8125 72.90625 
L 32.078125 72.90625 
Q 44.578125 72.90625 50.734375 67.671875 
Q 56.890625 62.453125 56.890625 51.90625 
Q 56.890625 45.015625 53.6875 40.46875 
Q 50.484375 35.9375 44.390625 34.1875 
z
M 19.671875 64.796875 
L 19.671875 38.921875 
L 32.078125 38.921875 
Q 39.203125 38.921875 42.84375 42.21875 
Q 46.484375 45.515625 46.484375 51.90625 
Q 46.484375 58.296875 42.84375 61.546875 
Q 39.203125 64.796875 32.078125 64.796875 
z
" id="DejaVuSans-82"/>
     </defs>
     <g transform="translate(355.65125 58.070437)scale(0.1 -0.1)">
      <use xlink:href="#DejaVuSans-82"/>
      <use x="69.419922" xlink:href="#DejaVuSans-101"/>
      <use x="130.943359" xlink:href="#DejaVuSans-97"/>
      <use x="192.222656" xlink:href="#DejaVuSans-108"/>
      <use x="220.005859" xlink:href="#DejaVuSans-32"/>
      <use x="251.792969" xlink:href="#DejaVuSans-100"/>
      <use x="315.269531" xlink:href="#DejaVuSans-97"/>
      <use x="376.548828" xlink:href="#DejaVuSans-116"/>
      <use x="415.757812" xlink:href="#DejaVuSans-97"/>
     </g>
    </g>
    <g id="line2d_31">
     <path d="M 327.65125 69.248562 
L 347.65125 69.248562 
" style="fill:none;stroke:#ff7f0e;stroke-linecap:square;stroke-width:1.5;"/>
    </g>
    <g id="line2d_32"/>
    <g id="text_16">
     <!-- Prediction -->
     <defs>
      <path d="M 19.671875 64.796875 
L 19.671875 37.40625 
L 32.078125 37.40625 
Q 38.96875 37.40625 42.71875 40.96875 
Q 46.484375 44.53125 46.484375 51.125 
Q 46.484375 57.671875 42.71875 61.234375 
Q 38.96875 64.796875 32.078125 64.796875 
z
M 9.8125 72.90625 
L 32.078125 72.90625 
Q 44.34375 72.90625 50.609375 67.359375 
Q 56.890625 61.8125 56.890625 51.125 
Q 56.890625 40.328125 50.609375 34.8125 
Q 44.34375 29.296875 32.078125 29.296875 
L 19.671875 29.296875 
L 19.671875 0 
L 9.8125 0 
z
" id="DejaVuSans-80"/>
     </defs>
     <g transform="translate(355.65125 72.748562)scale(0.1 -0.1)">
      <use xlink:href="#DejaVuSans-80"/>
      <use x="60.287109" xlink:href="#DejaVuSans-114"/>
      <use x="101.369141" xlink:href="#DejaVuSans-101"/>
      <use x="162.892578" xlink:href="#DejaVuSans-100"/>
      <use x="226.369141" xlink:href="#DejaVuSans-105"/>
      <use x="254.152344" xlink:href="#DejaVuSans-99"/>
      <use x="309.132812" xlink:href="#DejaVuSans-116"/>
      <use x="348.341797" xlink:href="#DejaVuSans-105"/>
      <use x="376.125" xlink:href="#DejaVuSans-111"/>
      <use x="437.306641" xlink:href="#DejaVuSans-110"/>
     </g>
    </g>
   </g>
  </g>
 </g>
 <defs>
  <clipPath id="p8ce50ef17c">
   <rect height="266.112" width="357.12" x="57.6" y="41.472"/>
  </clipPath>
 </defs>
</svg>
